<?xml version="1.0" encoding="UTF-8"?>
<svg id="uuid-fecbef04-be42-47ab-a433-06424a73b59c" data-name="Livello 2" xmlns="http://www.w3.org/2000/svg" xmlns:xlink="http://www.w3.org/1999/xlink" viewBox="0 0 207.86502 344.91002">
  <defs>
    <style>
      .uuid-90bfe30b-ab79-405a-b468-cd6f71ab2286, .uuid-be193645-c30f-49a2-9bab-b9a0bb2c7739 {
        fill: none;
      }

      .uuid-d24aa357-17d5-41f9-bc21-e465e7d1e2fc {
        fill: #c55361;
      }

      .uuid-be193645-c30f-49a2-9bab-b9a0bb2c7739 {
        clip-path: url(#uuid-d9fa66c9-9bac-449a-a9e9-a9a9c037866f);
      }
    </style>
    <clipPath id="uuid-d9fa66c9-9bac-449a-a9e9-a9a9c037866f">
      <rect class="uuid-90bfe30b-ab79-405a-b468-cd6f71ab2286" width="207.86502" height="344.91002"/>
    </clipPath>
  </defs>
  <g id="uuid-ffc41d41-14e8-4453-ad69-64eeea22c6a1" data-name="Livello 1">
    <g class="uuid-be193645-c30f-49a2-9bab-b9a0bb2c7739">
      <path class="uuid-d24aa357-17d5-41f9-bc21-e465e7d1e2fc" d="m138.5863,221.73676c.01498-.013.043-.034.091-.06.276-.09302.69299-.36902,1.271-.83902.81601-.66599.92599-.84799.95898-.94501.07901-.17499.117-.35199.13702-.52698.78.41098.86398.418.93799.418.03,0,.16.01599.57599.22198.957.45901,2.44501.879,4.42001,1.24899.414.08301,1.086.16602,1.99802.24902.74597.04099,1.45297.061,2.12.061,2.022,0,3.69-.18903,4.983-.56802.37799-.13898.565-.168.655-.168.12598,0,.36499-.02698,1.017-.26599l2.30099-.99799c.19699-.117.54199-.30002,1.03-.543.72299-.362.85001-.479.91199-.56201.07501-.10001.14001-.18701.14001-9.17599v-8.87201l.29099-.82199c.26001-.733.35602-.95401.38901-1.021.078-.15201.10501-.39902-.16199-.65402l-.25201-.41998h-15.509l-.25198.41901c-.14902.245-.22601.68198-.24902,1.37399-.02197.67398.03302,1.16699.16901,1.50699.15601.39301.298.58902.47.65399.18802.07602.435,0,.83801-.25299.38098-.19199.953-.328,1.702-.40601.776-.08298,2.358-.10098,4.70599-.06097,3.52301,0,4.23801.04999,4.34201.07599.14398.05399.16699.11801.17398.13599.04001.15802.10703,1.34201.10703,7.51202,0,6.28098-.069,7.487-.112,7.65598-.03403.12402-.14301.27902-.311.448-.20599.20401-.28201.237-.26602.23801-.09399,0-.23398.02899-.724.33499-.59097.31601-1.642.61902-3.12997.89801-1.65002.32401-3.15903.422-4.48801.30499-1.65302-.12198-2.85501-.30499-3.57501-.54398-.42798-.129-.81598-.23102-1.186-.311-.349-.078-.702-.207-1.05298-.383-.37201-.185-.793-.36401-1.23502-.52402-1.642-.759-2.81699-1.50699-3.49799-2.228-.224-.22-.371-.32401-.49301-.30798-.004-.00101-.05301-.02802-.15298-.17902-.15701-.23599-.28101-.35001-.41302-.375-.047-.03201-.207-.155-.66199-.612-.45099-.453-.582-.604-.62-.65298-.034-.11401-.14401-.21503-.32501-.35303-.10999-.082-.146-.129-.15298-.129v.00101c-.00302-.15698-.11102-.31799-.35699-.53601-.14902-.133-.19-.198-.19702-.198-.00299-.14099-.08701-.314-.29099-.59299-.151-.20901-.255-.38699-.30801-.52899-.035-.091-.116-.31201-.29498-.379-.05402-.07602-.20801-.323-.604-1.11401-.685-1.448-1.134-2.71298-1.33099-3.741-.04102-.33801-.12701-.76999-.25101-1.28601-.11902-.49799-.20001-1.17599-.24002-2.01498-.04099-.83701.04102-1.81.24402-2.90201.36099-2.17599.88998-3.888,1.55701-5.065.30899-.43399.35199-.60699.34998-.70099.005-.02402.04901-.173.45401-.78101.323-.48499.54501-.811.668-.97198.11902-.15903.23599-.29501.349-.40601.147-.146.229-.29602.24899-.45901.11002-.06.28101-.22998.655-.69598.33102-.40601.45901-.52902.50302-.56601.11301-.026.26999-.14301.71201-.58401.35098-.349.642-.603.88898-.77298.285-.19699.46201-.33099.55502-.42502.02899-.03.14499-.12598.564-.36099.397-.22299.59299-.38901.62198-.55499.15201,0,.30301-.08099.436-.22202.082-.05499.29602-.17599.83801-.44699.465-.23199.97598-.457,1.51801-.66901.573-.22498,1.065-.41998,1.45898-.578,1.69-.52197,3.61099-.789,5.70801-.789,1.047,0,2.26199.134,3.61398.397,1.34601.26102,2.34903.55301,2.98102.86902.612.30899.78101.33798.815.33099.01999.005.14398.04901.646.401.647.38,1.08701.87601,1.31299,1.478.086.22501.216.37302.38901.44101.17999.069.38501.047.595-.06.526-.21002.728-1.04501.63901-2.63202-.065-.90298-.22299-1.939-.849-1.939-.06601,0-.15201-.04498-.24899-.13101-.173-.142-.49701-.29498-.99701-.46997-.599-.20602-.789-.30902-.841-.34402-.479-.306-1.20901-.55698-2.24899-.77298-.30701-.039-.63202-.11502-1.00601-.23801-.83301-.25101-2.01898-.41901-3.52798-.5-1.50601-.082-2.77402-.06299-3.76202.061l-1.89297.246c-.55502.04099-1.39902.25699-2.578.65598-1.177.401-2.07202.75803-2.73502,1.08902l-.745.37399c-.45499.25601-.51599.31601-.53601.33801-.00699.00497-.077.05798-.44098.23999-.31601.159-.53201.30899-.65802.45898-.065.07901-.103.09802-.099.10001-.129.00101-.26801.052-.47098.19202-.15302.15399-.55801.47598-1.194.95499-.13901.09399-.29401.22702-.46402.397-.11398.11499-.173.16299-.19901.18201-.103.022-.267.16199-1.12598,1.04999-.431.44601-.98502,1.026-1.13602,1.23001-.09799.09799-.34201.41599-.72998.94598-.38303.526-.62201.836-.70901.923-.14499.142-.22.29602-.229.50201-.07498.07599-.21399.28-.60699.927-.55801.914-.55801,1.02399-.55701,1.09799-.00299.02301-.02798.134-.224.58701-.73499,1.638-.82199,2.10199-.82199,2.31,0,.16-.05002.327-.155.50299-.26501.48502-.47601,1.66202-.64301,3.59802-.207,2.63199-.03799,4.875.5,6.66397.784,2.51102,1.05701,3.09302,1.18301,3.293.155.31201.15997.40601.15997.41602,0,.164.09702.362.323.664.19702.263.22501.353.229.353v-.00101c0,.104,0,.263.87601,1.487.548.77499,1.05701,1.46201,1.522,2.052.40399.44501.87.922,1.423,1.45502.53799.51797,1.07199.98798,1.58398,1.397.483.38498.88901.68198,1.20801.88599-.14398.09-.285.19501-.41699.32999-.086.11301-.134.14603-.12701.15002-.13.00299-.26999.05499-.431.16299l-.06598.065c-.022.034-.13702.16901-.69601.51398-.42499.26401-.853.49802-1.26898.69501-.57303.27301-.71301.28302-.72601.28302-.10599,0-.27301.04498-.77301.26797-.35199.15802-.94901.34003-1.77399.53802-.81302.19998-1.96402.30099-3.418.30099-1.44901,0-2.534-.10101-3.22501-.29901-.70001-.19699-1.23801-.38-1.59799-.54099-.46802-.207-.67102-.25601-.819-.26801-.073-.11401-.28702-.27499-.90802-.642-.534-.31702-1.20999-.88202-2.01199-1.68402-1.70801-1.70499-2.02798-2.12-2.086-2.21899-.022-.17499-.151-.32401-.25101-.427-.077-.07401-.21698-.245-.45398-.629-.371-.61798-.647-1.039-.82001-1.255-.16501-.20798-.19202-.28497-.19299-.28497,0-.08301,0-.18903-.58502-1.16501-.435-.71899-.51199-.89301-.521-.89301v.00101c0-.09201-.02698-.20599-.34698-.685-.229-.34-.267-.41602-.26801-.40002-.00299-.23199-.11099-.65399-.89301-1.83197-.20499-.35703-.21201-.46201-.21201-.46503,0-.15799-.10098-.36298-.32498-.664-.16299-.21597-.21802-.30499-.23502-.33499-.01199-.077-.06998-.202-.33701-.63199-.20599-.32602-.26199-.43802-.27298-.43802v.00302c-.00302-.10602-.05701-.20401-.35101-.561-.43698-.612-.21399-.94299.02002-1.159.26999-.22202.35498-.25.34299-.25101.27301,0,.80301-.13199,2.22501-1.27499.42899-.30002.86301-.681,1.29199-1.134.435-.45401.81299-.884,1.121-1.27701.40601-.508.496-.73199.513-.901.11899-.073.245-.27499.47198-.77701,1.24701-2.745,1.582-5.21799.99301-7.35498l-.36801-1.22299c-.33398-1.25803-1.04199-2.539-2.103-3.80801-1.06097-1.26801-2.233-2.24899-3.48398-2.91602-.952-.49698-1.96201-.87598-3.004-1.12799l-1.34601-.314h-7.806c-3.931,0-6.396.021-7.32501.06299-1.06699.048-1.55399.198-1.68799.53-.06201.18903-.00299.46902.19299.89902.27402.672.42401,1.625.44202,2.83398.01999,1.229.02899,6.005.02899,14.59702,0,8.18399-.009,12.86801-.02899,14.319-.02402,1.86301-.19501,2.37201-.30402,2.522-.397.647-.42099,1.12198-.086,1.39798.18799.18802.638.42502,2.32199.37402,1.354-.04501,2.009-.27002,2.11902-.71301.048-.14401.043-.37698-.319-1.103l-.34399-.68701v-11.15298l.59497-.543,10.89502-.06201.44.328c.582.39001,1.11398,1.004,1.57999,1.81702.16699.33698.293.56699.41202.73599.082.08099.35898.50101,1.30499,2.38501.246.58197.51801,1.12799.80899,1.625.284.48798.64502,1.14798,1.07001,1.95798.58899,1.12.75601,1.36801.82901,1.45502.08499.104.198.28198.34299.54398.15201.28601.27399.47403.375.57401.04001.04102.16501.19901.55499.79501.30701.47198.57001.841.76199,1.065.11002.19501.431.62601,1.91101,2.10898,1.37799,1.37802,1.73199,1.63702,1.89001,1.686,1.004.69202,1.039.69101,1.08499.681.01099.004.07901.034.35101.21402.30099.19998.495.284.65298.284.01901,0,.07901.02399.207.14398.64301.43201,1.87701.845,3.76901,1.26401.823.17801,1.715.26801,2.67099.26801.83398,0,1.716-.06799,2.63901-.20499.77499-.121,1.409-.21201,1.89899-.27301.52899-.06702.92801-.17801,1.21701-.33499.254-.13501.52698-.241.80899-.31601.32401-.08701.81-.28201,1.48599-.60001.58301-.27399,1.09201-.50198,1.43402-.64099.35898-.14301.56-.254.60199-.42599m-27.57999-21.10703c-.07901.00601-.229.05002-.83002.29303-.43201.17599-.97.30499-1.58701.38199-.61499.04099-2.142.07199-4.53299.09201-2.41.021-4.30402.00998-5.647-.03101l-1.935-.05801-.48099-.47998v-15.79001l.41498-.41501h6.11099c5.427,0,6.48801.07199,6.64203.11401,1.60599.41898,2.00998.64499,2.10797.741.14603.147.38702.28101.72601.40799.34601.19202.90701.67401,1.67001,1.435,1.01199,1.01199,1.09399,1.27301,1.09799,1.31,0,.11401.064.22101.272.45901.07098.07999.23199.353.53998,1.27499.23801.707.35602,1.60101.35602,2.66,0,1.052-.09702,1.853-.29001,2.37698-.32498.85901-.32498,1.004-.32498,1.06702,0,.047-.04602.103-.08301.13901-.11801.11798-.25702.31998-.448.655-.15399.34698-.595.90298-1.30499,1.651-.55402.556-1.10501.98599-1.638,1.28299-.621.34601-.79202.418-.836.43298"/>
      <path class="uuid-d24aa357-17d5-41f9-bc21-e465e7d1e2fc" d="m54.9711,130.28793c.186-.57001.32401-.95001.42001-1.14102.091-.189.04498-.35699-.14102-.5-.37399-.427-1.32898-.54498-2.86697-.35498l-.84003.07098-2.237,2.211c-1.49298,1.42599-2.612,2.56802-3.35699,3.423-.74698.858-1.21298,1.38202-1.39798,1.57001-.327.33301-.724.83301-1.19,1.49899-.13901.23801-.36102.52301-.66299.85501-.30402.33499-.57303.69101-.80402,1.07001-.23499.383-.38599.582-.45599.60699-.07001.02399-.22202.25-.45502.677-.27698.38098-.5.61899-.66299.715s-.43201.12-.80399.07098c-1.91299-.42899-3.521-.59399-4.82501-.5-2.146.19101-3.84698.53702-5.10498,1.034-1.26001.5-2.44901,1.32101-3.56702,2.46201-1.259,1.23801-1.888,2.047-1.888,2.42502,0,.04898-.07001.16898-.20999.35699-.23502.28601-.53601.987-.90802,2.10599-.375,1.11801-.60797,2.056-.70099,2.81702-.27899,2.32898-.16501,4.20798.35001,5.634.186.478.28101.81097.28101,1,0,.189.091.48798.27899.88998.186.405.27899.633.27899.67801,0,.04898.164.33301.49002.85699.23398.42899.78098,1.09399,1.642,1.99799.86398.90302,1.366,1.354,1.504,1.354.142,0,.20999.04901.20999.14401,0,.09601.41901.345,1.259.74799.83899.40601,1.46799.655,1.88699.75.65399.19,1.03799.311,1.155.358.116.047.198.759.24402,2.13901.09299,2.04501.431,3.80499,1.01599,5.27802.58099,1.47498,1.224,2.61697,1.92398,3.42398.18402.19101.42801.42902.73203.715.30298.284.60498.521.91098.71201.30099.18802.49902.285.59201.285.142,0,.36099.07101.664.215.30301.14301.806.24899,1.504.32001.70001.07199,1.23499.08398,1.60999.03601.27902-.048.802-.21301,1.57202-.5.76898-.28403,1.17798-.47501,1.22501-.57101.04599-.09601.11499-.142.20999-.142.09299,0,.37201-.24799.83798-.74899.46503-.49802.74701-.866.84003-1.10501.09299-.189.211-.44998.34998-.785.233-.47501.40802-1.24799.52402-2.319.117-1.069.082-1.771-.104-2.104-.23401-.474-.58401-.771-1.04901-.88998-.46799-.11801-.86499-.01102-1.189.319-.46701.38-.724,1.02399-.76999,1.927-.23502,2.42499-1.37601,3.63901-3.42801,3.63901-.83899,0-1.52701-.18002-2.06201-.535-.53598-.35703-1.01199-.98801-1.43298-1.892-.746-1.47302-1.16602-3.233-1.258-5.27802-.047-.99799-.034-1.59299.034-1.78299.07001-.19101.36099-.30902.87299-.35602.84-.09598,1.83002-.32397,2.97302-.67798,1.14099-.35901,1.89798-.67902,2.27197-.96301.233-.23898.39603-.35901.49002-.35901.09299,0,.255-.07098.491-.21298.23199-.23801.44199-.42902.629-.57101.27899-.189.465-.33298.55899-.42899.185-.14102.47702-.474.87399-.99802.39603-.52298.59402-.80798.59402-.85599,0-.095.02399-.142.07098-.142.09201-.047.23102-.215.41901-.49899.185-.28601.27798-.45203.27798-.50101,0-.09399.07303-.259.21201-.49802.233-.38199.51102-1.09399.83801-2.13898.327-1.047.48898-1.79602.48898-2.24701,0-.45401-.18597-.83301-.56-1.14099-.371-.31201-.814-.41901-1.327-.32401-.28.04898-.54898.22699-.80399.53598-.25702.311-.38501.60602-.38501.89203,0,.142-.117.53497-.35001,1.17798-.23398.64102-.44299,1.129-.629,1.46201-.23398.38-.35001.61801-.35001.71301,0,.142-.25699.52298-.76898,1.14099-.513.61801-.909,1.048-1.18802,1.284-.375.285-.57199.46301-.59598.534-.02402.07101-.069.10699-.13901.10699-.07101,0-.22202.08401-.45499.25101-.23502.16602-.733.39301-1.50302.67801-.76999.285-1.435.42798-1.995.42798h-.90701l.13901-.71298c.14102-1.189.42102-2.569.841-4.13901.23199-.664.349-1.07098.349-1.211,0-.14301.069-.431.211-.858.13901-.42801.254-.80798.34601-1.14099.14099-.617.46701-1.49802.98001-2.638.233-.52499.50098-1.13.806-1.82001.29999-.689.51199-1.10599.62799-1.24799s.17499-.28601.17499-.43002c0-.14099.035-.21198.10501-.21198s.198-.21503.384-.642c.186-.42801.31601-.66501.38599-.71402.069-.04599.20901-.284.418-.71399.21002-.42801.396-.71301.56-.85602.16302-.142.53601-.11798,1.12003.07101.58099.19101.87299.311.87299.35699,0,.048.19901.19299.595.42801.396.23898.63998.41901.73401.53601.09299.11899.19901.17798.31598.17798.11502,0,.23102.10699.35001.32001.11499.21399.21899.323.314.323.091,0,.582.46201,1.46701,1.38901.88501.92899,1.35101,1.46399,1.39899,1.60498.04602.14401.11502.24103.20901.28802s.245.28497.45499.71198c.21002.42902.35001.64301.41901.64301.07199,0,.10602.05902.10602.177,0,.12.12799.358.38498.71301.255.35699.384.58398.384.67899,0,.09399.09302.33301.27899.715.18701.47302.30301,1.16302.35001,2.06702.047.90298.07202,2.89999.07202,5.992,0,2.711-.02502,4.423-.07202,5.13599-.047.71399-.186,1.40399-.41901,2.069-.18799.52301-.25699.83301-.20999.927.14001.33401,1.00201.45401,2.58701.358.888,0,1.47-.06,1.74899-.17999.28101-.11902.42001-.297.42001-.535,0-.237-.035-.35501-.104-.35501-.07101,0-.19901-.30899-.38501-.92899l-.28101-.85501v-37.09601l.28101-.92798Zm-16.76099,14.48199c-.41901.57098-1.05002,1.832-1.88699,3.78101-.979,2.18799-1.608,3.664-1.88702,4.423-.09399.33298-.21198.66599-.35098.99799-.56,1.47501-.841,2.40201-.841,2.784,0,.14001-.08099.452-.24301.927-.164.47501-.29199,1.022-.384,1.64001-.28,1.95099-.48999,3.04498-.62997,3.28098-.04703.14301-.117.215-.21002.215-.095,0-.33899-.08298-.73398-.25-.397-.16599-.79303-.34497-1.18903-.53497-.39798-.19-.66498-.33102-.80399-.42801-.79401-.57101-1.54001-1.35602-2.23801-2.354-1.35199-1.99799-1.772-4.47-1.259-7.42099.14099-.75702.396-1.59201.77002-2.496.37198-.90201.67599-1.47202.909-1.71201.186-.14401.27798-.25.27798-.32001s.245-.36798.73502-.892c.48898-.522.758-.785.80499-.785.04498,0,.13901-.047.27798-.14301.14001-.142.491-.35599,1.04901-.63998.561-.28601.909-.42902,1.04999-.42902.14102,0,.44302-.09598.91-.28598.465-.18802,1.37302-.28601,2.728-.28601,1.16302,0,1.979.02499,2.44501.07199.79401.095,1.02499.38101.70001.85602m13.26401,3.42398l-.28003.07101c-.23398.04901-.41998-.05899-.55899-.32199-.14099-.26001-.64099-.83002-1.504-1.71002-.86301-.87997-1.353-1.31998-1.47-1.31998-.116,0-.17499-.047-.17499-.14301,0-.095-.383-.39099-1.151-.89099-.76901-.49802-1.39001-.867-1.853-1.10602-.42001-.23801-.664-.42899-.73502-.57098-.07001-.14301,0-.32101.20999-.534.20901-.21301.315-.36801.315-.46402,0-.19.51102-.858,1.53802-1.99799.27798-.33102.41998-.535.41998-.60602,0-.073.21899-.34399.66202-.82098.44299-.47501.875-.95102,1.29498-1.427.69901-.85501,1.51501-1.73502,2.448-2.638.32501-.33301.547-.452.664-.35699.11499.095.17502,2.59198.17502,7.48999v7.34698Z"/>
      <path class="uuid-d24aa357-17d5-41f9-bc21-e465e7d1e2fc" d="m193.2326,312.09962c-1.61603,1.71901-8.09601,8.123-20.42902,14.455-13.25601,6.80701-36.18399,14.92-70.11301,14.92-60.72598,0-85.58197-27.72299-88.668-31.48099v-70.72401l-3.43399-.47098v72.35098l.33002.453c.991,1.36,25.07397,33.30701,91.77197,33.30701,66.625,0,92.50299-29.774,93.57098-31.041l.40399-.479v-86.60899l-3.43295.896v84.42299Z"/>
      <path class="uuid-d24aa357-17d5-41f9-bc21-e465e7d1e2fc" d="m207.6597,199.37064c-.11499-1.68799-.203-2.103-.255-2.25598-.41998-1.582-.48303-1.98801-.48303-2.091,0-.12003-.05396-.37003-.45398-1.39001-.32898-.70401-.52899-1.15799-.60199-1.38998-.08899-.26102-.27502-.63501-.56903-1.14502-.24597-.44699-.42798-.79099-.54395-1.02499-.133-.30301-.34802-.65799-.64203-1.06-.27997-.37701-.48199-.67001-.61401-.89001-.21497-.29797-.82098-.96698-1.80298-1.99197-1.37-1.43301-1.46802-1.42603-1.55499-1.414l-.047-.06601c-.03503-.034-.13904-.13602-.76099-.603-.67206-.505-.73004-.51199-.78302-.504-.00201-.00101-.04102-.013-.11499-.06-.23004-.22601-.72699-.53302-1.56604-.965-.83099-.423-1.51196-.72803-2.08197-.931-1.082-.41501-2.15298-.70901-3.18399-.87302-2.76199-.40399-4.54102-.36499-5.49701-.15201-.43201.099-.80798.15002-1.11301.15002-.35699,0-.793.08398-1.33099.25598-.53.168-.88098.26199-1.10599.298-.26901.04599-.54001.13699-.80499.26901-.233.11697-.66202.30099-1.28.547-.66101.29099-1.35501.66898-2.05301,1.121-.20999.125-.375.22998-.50101.31299-.25601.17099-.65799.48599-1.177.92599-.32001.229-.40601.263-.38501.26401-.146,0-.28699.10098-.543.38501-.16699.18698-.47498.48499-.96799.93597-.655.60001-.763.75-.78.86502-.02301.03598-.104.14398-.366.40799-1.103,1.151-1.32599,1.55099-1.354,1.771-.01801.03101-.073.11301-.229.30099-.23499.29202-.32898.46201-.327.59402,0,.00198-.021.09-.23099.36499-.22202.29901-.323.50299-.323.66299,0,.008-.00302.07199-.125.216-.13303.14999-.24103.293-.34702.45599-.69501,1.521-.69501,1.66901-.69501,1.75601,0,.03-.01898.16599-.25699.66998-.26199.561-.29901.75302-.29901.867,0,.05701-.02298.245-.172.849-.293.87802-.492,2.25302-.595,4.08701-.103,1.836-.07199,3.23001.095,4.138.37802,2.263.70599,3.65201,1.01199,4.258.207.366.216.48001.216.5,0,.07901,0,.24301.51202,1.30002.32098.66098.66397,1.31699,1.02298,1.94897.552.979.66699,1.039.73999,1.08301,0,.16901.10703.36902.35901.673,1.58801,1.91901,2.66602,3.078,3.311,3.55099.23099.15302.50299.367.84.66.453.37302.83499.64902,1.14001.82199.284.164.689.40802,1.22198.73502.78799.48401.93802.526,1.035.526,0-.00201.07901.00198.513.21899,1.25.66699,3.11899,1.14999,5.54102,1.43701.49399.08298.89798.12598,1.18198.12598h.00702c.14398.01202.31198.017.505.017.487,0,1.13599-.03699,1.93198-.11099,1.13101-.103,1.88901-.216,2.293-.33899.71701-.12701,1.17502-.23199,1.34702-.30701.31799-.04599.63699-.16.944-.33701.358-.20398.45898-.215.46799-.216.14902,0,.31998-.06097.52097-.185.10602-.06598.32202-.17398.758-.319.34302-.129.81805-.366,1.44604-.72299.64197-.36099,1.034-.629,1.20001-.81699.11597-.13501.17297-.16302.16498-.16602.138,0,.35297-.01401,2.00201-1.603,1.06897-1.026,1.823-1.84399,2.22498-2.409.33398-.375.54102-.61499.62201-.71802.12-.146.177-.27399.17297-.35699.00305-.008.03003-.08701.23102-.35699.271-.354.32501-.49298.32098-.569.00299-.00699.02704-.07901.20599-.323.17603-.241.39404-.668.67102-1.30499.31403-.72699.41901-.86401.414-.86801l.06-.03.03302-.05701c.22101-.353.59198-1.45798,1.133-3.379.53601-1.90698.70502-4.271.5-7.02499m-3.41498,4.76999c-.25,1.298-.38403,1.81802-.453,2.026-.104.31302-.18805.62302-.255.95102-.05701.28598-.16504.61099-.32001.96399-.48499,1.08902-.87,1.841-1.14801,2.23901-.16498.24298-.40802.64899-.74603,1.23898-.23199.39001-.46899.707-.70197.94-.29303.29501-.39203.418-.42303.50702-.05896.07199-.27295.29999-.98596.996-.85303.82599-1.198,1.133-1.33398,1.24197-.51404.397-1.13904.81601-1.85303,1.24503-.90497.54099-1.10999.60699-1.13797.61298-.10901,0-.27902.05002-.78.30099-.36102.17902-.72702.31802-1.09302.41302-.565.14899-.737.24899-.82901.31998-.00998.009-.12997.08701-.741.16602-.47299.061-1.09998.15601-1.87598.27798-.92603.12003-1.63101.16501-2.06601.12601-.172-.04199-.67499-.12601-1.49701-.24799-1.44598-.203-3.13699-.77499-5.04498-1.70801-.474-.19601-.97302-.487-1.48801-.86401-.60901-.44299-.83301-.65799-.91501-.75598-.108-.271-.302-.30402-.37698-.30402h-.00302c-.00098,0-.065-.01498-.22498-.155l-.66702-.577c-.151-.14899-.39099-.41599-.754-.845-.34799-.40698-.67599-.797-.98199-1.16501-.31-.37198-.496-.60599-.55399-.69199-.12402-.25-.29901-.548-.53601-.914-.211-.327-.34702-.586-.401-.771-.04199-.13501-.12302-.39801-.32001-.461-.02399-.035-.073-.11801-.15201-.29999-.66599-1.55502-.71799-1.875-.71799-1.936,0-.099-.021-.29102-.20099-.82401-.358-.918-.60101-2.271-.72302-4.02002-.12-1.73798-.06-3.04398.17902-3.88998.08701-.34601.16098-.737.22101-1.16.05698-.39999.13998-.70499.25098-.90601.134-.24698.224-.53101.26801-.83701.15701-.82498.72601-2.06097,1.69501-3.67899.366-.64801.65201-1.116.82401-1.362.21201-.21201.40799-.452.57498-.70001.11301-.14999.353-.41098.715-.77499.36301-.36301.75201-.733,1.15802-1.09799.40698-.366.73401-.64999.97598-.854.44202-.36099.86502-.65302,1.25702-.86801.42999-.23599.68799-.38599.841-.491.37698-.341,1.27698-.737,2.677-1.17798,1.082-.32202,2.207-.54703,3.33798-.668.38901-.03802.87201-.04901,1.44101-.03101.57999.02298,1.186.064,1.79898.12299.61301.05902,1.10303.147,1.479.27002.89401.20499,1.89301.55298,2.96902,1.03198,1.07996.48199,1.89197.927,2.40497,1.31799.26099.21902.47601.37003.61603.43301.13898.112.74896.69,2.86896,2.811.19.18799.23199.267.23999.267v-.00201c.00201.17401.09406.31802.24902.39001.04901.03.26398.228,1.01501,1.51401.11298.18997.31299.56799.60498,1.14899.32001.646.39703.819.40601.819,0,.10599.047.26901.26898.72.19904.401.22101.55499.22101.603,0,.112.02704.328.25903.90201.80396,2.41599.966,5.14899.48401,8.12198"/>
      <path class="uuid-d24aa357-17d5-41f9-bc21-e465e7d1e2fc" d="m42.7518,289.58012l13.94-.077.62.465c.77502.517,1.47202,1.315,2.09,2.401.207.414.362.696.466.851.20502.207.77402,1.24001,1.703,3.097.30902.724.64401,1.394,1.00702,2.01401.35999.61899.814,1.44499,1.35498,2.47699.54102,1.03601.87701,1.627,1.00702,1.78201.129.15399.28299.40099.466.73599.17899.336.32098.55501.42297.658.10501.10399.34802.452.737,1.04599.388.595.71002,1.04601.97,1.354.20502.36101.992,1.228,2.36102,2.595,1.36697,1.369,2.12799,2.052,2.28299,2.052.82599.56799,1.26599.85201,1.31601.85201.052,0,.233.105.54199.31099.311.205.53.308.659.308.12799,0,.272.07701.42599.233.77402.517,2.32401,1.035,4.646,1.547,1.91.414,4.104.44101,6.58401.07901.979-.155,1.78-.271,2.401-.34801.617-.077,1.095-.205,1.431-.38699.336-.18001.69699-.32201,1.08301-.427.38898-.103.995-.349,1.82098-.73601.82501-.38599,1.43301-.657,1.82101-.812.38699-.155.57999-.272.57999-.34799,0-.078.103-.16901.30899-.272.311-.104.81601-.439,1.51102-1.005.698-.569,1.07098-.931,1.12299-1.086.25601-.569.23199-1.13499-.077-1.702-.259-.51801-.69699-.78801-1.31799-.817-.617-.024-1.159.196-1.625.66-.15601.207-.284.31099-.38699.31099-.10501,0-.233.05101-.38702.15401-.10397.155-.42599.40199-.96899.735-.54199.338-1.08298.634-1.625.892-.54401.257-.89301.38699-1.047.38699-.103,0-.38599.104-.85098.30901-.46402.207-1.228.439-2.285.698-1.05801.258-2.517.386-4.37399.386-1.86002,0-3.24103-.12801-4.14401-.386-.90302-.259-1.58701-.491-2.052-.698-.465-.205-.77499-.30901-.92899-.30901-.15701,0-.233-.03899-.233-.11699,0-.07701-.34802-.321-1.04401-.735-.698-.41301-1.56302-1.13501-2.595-2.16901-1.80801-1.806-2.71201-2.787-2.71201-2.942,0-.103-.077-.23199-.23001-.388-.15598-.15399-.36398-.437-.621-.849-.46399-.77699-.802-1.29199-1.00699-1.552-.207-.25499-.31-.43599-.31-.541,0-.103-.23099-.54199-.69699-1.317-.46301-.77399-.69601-1.2-.69601-1.278,0-.07599-.13-.30899-.38901-.696-.25699-.38799-.38699-.60599-.38699-.659,0-.36-.35999-1.084-1.08398-2.16899-.207-.36-.30801-.60501-.30801-.735,0-.12801-.117-.34801-.349-.658-.233-.30901-.349-.489-.349-.54199,0-.05-.129-.283-.38599-.69701-.25803-.41299-.388-.644-.388-.69701,0-.04999-.129-.23199-.388-.54199-.51602-.72101-.491-1.34.07898-1.85901.30902-.256.51401-.38599.61902-.38599.46399,0,1.341-.51601,2.633-1.55.51599-.35901,1.04498-.825,1.58701-1.39301.54398-.56799,1.00699-1.097,1.39398-1.58701.388-.49199.58099-.814.58099-.96797,0-.15601.039-.233.11603-.233.07797,0,.24597-.28302.50299-.85202,1.54999-3.40698,1.961-6.42798,1.23898-9.061-.15298-.51599-.30899-1.03-.466-1.54797-.41299-1.54901-1.27597-3.11002-2.59198-4.686-1.31702-1.573-2.74899-2.77402-4.298-3.60202-1.18799-.61899-2.42801-1.08298-3.71701-1.39297l-1.62698-.38702h-9.83502c-5.00897,0-8.08099.02701-9.215.077-1.13699.05301-1.75497.20602-1.85898.46503-.05103.155.02499.465.23398.92899.36002.879.55402,2.104.578,3.67902.02701,1.57498.04001,7.70599.04001,18.39098,0,10.173-.013,10.819-.04001,12.67801-.02399,1.85799-.16599,2.96999-.42398,3.33099-.41501.66899-.46402,1.134-.15402,1.39301.30801.30899,1.21301.439,2.71002.38599,1.496-.04999,2.29498-.282,2.39999-.696.05099-.155-.077-.54199-.388-1.161l-.46399-.92999v-8.88l.92798-.854Zm-.92798-24.55l.31-.30899.38699-.38599h7.82098c5.26602,0,8.078.04999,8.44202.15298,1.599.41602,2.52798.75,2.78699,1.00702.15701.15698.43802.31097.85202.466.465.25897,1.18698.87799,2.16898,1.85898.98001.98102,1.47,1.60001,1.47,1.858,0,.05301.09.18201.272.38602.17999.20898.42502.776.73502,1.70599.311.92899.46698,2.078.46698,3.44501s-.12997,2.401-.388,3.09698c-.259.698-.38898,1.11099-.38898,1.23901,0,.12799-.065.258-.19302.38699-.12997.13-.29797.37799-.504.73599-.207.466-.772,1.18799-1.70398,2.16899-.72101.722-1.431,1.27701-2.12802,1.66501-.698.38699-1.08499.58099-1.16199.58099-.078,0-.401.11501-.96802.347-.56998.23399-1.26599.401-2.09097.504-.77502.054-2.685.091-5.73203.116-3.04498.02701-5.41898.013-7.125-.03699l-2.55298-.07901-.77499-.774v-20.136Z"/>
      <path class="uuid-d24aa357-17d5-41f9-bc21-e465e7d1e2fc" d="m155.73669,271.90582c.48099-.04797,2.03799-.07498,4.66898-.07498h5.314l.91101.379c.60699.255,1.03702.43201,1.29102.53299.202.10101.38998.07401.56998-.07599.17603-.15201.302-.41699.379-.797.07501-.38.13901-.87399.18903-1.48102,0-.608-.02502-.97299-.07501-1.10098-.052-.12701-.17801-.29001-.38101-.495l-.45398-.379h-8.883c-4.453.05099-7.05902.11398-7.819.19-.759.077-1.13901.29199-1.13901.646,0,.25299.077.45398.229.60599.151.15399.30298.647.45499,1.48102.151.83398.20099,4.92297.151,12.25998,0,7.998-.203,12.274-.60599,12.82899-.30402.45601-.30402.812,0,1.064.09998.104.45499.17801,1.061.22801.60898.052,3.79599.075,9.56699.075l8.65399-.075.30301-.38c.20099-.202.30399-.758.30399-1.66901-.05298-1.46899-.35397-2.202-.91098-2.202-.254,0-.38.039-.38.114,0,.07401-.177.18901-.53201.341-.30298.101-.595.189-.87198.26601-.27902.07599-.69702.12599-1.254.151-.556.02699-1.26501.03899-2.125.03899h-3.41602c-3.74701-.05099-5.74301-.153-5.99701-.304l-.37799-.22699v-5.694c0-3.03801.03601-4.86.11401-5.466.07397-.60699.26398-.961.56799-1.06299.60699-.151,1.492.02701,2.65698.53101,1.61902.65799,3.16101.93799,4.63.83398,2.52902-.101,4.10001-.57999,4.707-1.44098.30301-.505.405-1.01102.30301-1.51801-.10101-.50601-.41699-.875-.948-1.10202-.53-.22598-1.07501-.189-1.633.11401-.60699.35599-1.53101.51999-2.77002.49399-1.24197-.02499-2.189-.215-2.84698-.569-.35599-.20398-.60699-.30399-.76001-.30399-.14899,0-.41599-.061-.79599-.189-.38-.125-.97601-.228-1.784-.30502-.80902-.07397-1.25302-.17599-1.327-.30399-.078-.12399-.11401-1.06299-.11401-2.80801,0-1.74698.07501-2.71997.22501-2.92099.15298-.104.46799-.17801.95001-.23001"/>
      <path class="uuid-d24aa357-17d5-41f9-bc21-e465e7d1e2fc" d="m121.5097,249.09503l-.21201.80301c-.14301.56702-.24902.89001-.32101.96201-.25198.24899-.16299.479.267.69299.21201.10699.98001.16,2.297.16.92502,0,2.07501.03799,3.44702.10699,1.36798.07101,2.09198.12601,2.16299.16.07199.10501.591.09799,1.54999-.02499.96201-.125,1.70999-.276,2.245-.45401.353-.108.79001-.29599,1.30701-.56198.51599-.267.845-.474.991-.61502.53302-.535.495-1.103-.10898-1.70999-.14401-.17801-.38303-.267-.72101-.267-.33801,0-.63101.08899-.883.267-.21201.14301-.33801.21201-.37201.21201-.035,0-.22299.082-.561.242-.34.16098-.92599.29401-1.76401.39999-.83798.108-1.729.11801-2.672.02899-.94199-.091-1.81598-.15201-2.61798-.18698-.80002-.03702-1.272-.12601-1.41302-.26901l-.16299-.215-.05399-6.62399c0-4.237.02899-6.91101.082-8.01401.05399-1.10602.224-1.85199.50699-2.245.10602-.17502.12399-.319.052-.42502-.14099-.28598-.79999-.41199-1.974-.375-.89301,0-1.401.07202-1.52499.21201-.12601.14401-.14301.33099-.05402.56302.08902.23199.207.58698.34802,1.06799.14297.479.19498,3.285.16,8.41599v7.69299Z"/>
      <path class="uuid-d24aa357-17d5-41f9-bc21-e465e7d1e2fc" d="m119.27182,289.36533c.09998,1.57101.379,2.78601.83398,3.645.202.407.30301.66.30301.759,0,.15201.36798.608,1.10199,1.367.733.759,1.22601,1.215,1.48001,1.366,1.46698.811,2.354,1.216,2.65799,1.216.099,0,.353.07399.75699.228.405.14999,1.28.214,2.62003.189,1.34097-.02499,2.34-.11299,2.99899-.26599,2.02298-.45601,3.56699-1.543,4.63-3.265.55798-.808.922-1.832,1.10199-3.07301.17499-1.23999.112-2.34-.19-3.30299-.15201-.455-.39301-.96201-.72101-1.519-.33099-.55701-.59598-.85901-.798-.911-.10199-.05-.15198-.125-.15198-.22601,0-.153-.215-.405-.64502-.75999-.42999-.353-.97498-.74699-1.63098-1.17599-.65802-.429-1.31702-.823-1.974-1.17699-.811-.405-1.29102-.64502-1.444-.724-.15201-.07401-.60602-.30002-1.36502-.68002-.75897-.37997-1.20297-.633-1.32797-.76099-.12802-.12601-.24103-.189-.34201-.189-.103,0-.392-.202-.875-.60602-.48001-.40698-.84702-.75998-1.09799-1.06299-.91302-1.216-1.14001-2.556-.685-4.02499.30499-1.06302,1.17899-1.832,2.62-2.315,1.44299-.48102,2.74399-.444,3.909.11398.50598.203.79599.30502.87299.30502.07501,0,.42902.228,1.064.681.63202.45599.98602.68399,1.06.68399.07703,0,.27902.26501.60901.798.328.53101.49402.84601.49402.94998,0,.14801.06198.25201.189.302.12698.05103.241.05103.341,0,.10199-.04999.23898-.215.41898-.49399.17502-.27798.26602-1.02499.26602-2.23999,0-1.061-.064-1.746-.19202-2.05002-.12598-.302-.418-.57999-.87198-.83298-.45502-.203-.94901-.45801-1.48102-.76001-.53101-.30402-.89899-.48102-1.10001-.53-.10098-.05002-.55798-.203-1.366-.457-.811-.20102-1.65799-.27802-2.54401-.228-.88498.04999-1.53.14099-1.93597.26599-.405.12799-.70901.189-.909.189-.20502,0-.68402.20502-1.444.608-.75803.45401-1.44202,1.03799-2.04901,1.745-.45599.56-.68399.91202-.68399,1.064,0,.15302-.03702.22803-.11401.22803-.07401,0-.20099.17798-.38.53098-.17801.354-.26498,1.29102-.26498,2.80701v2.28l.53198,1.06302c.30402.65598.50601,1.02399.60602,1.09998.10199.07501.19098.19.26599.34201.078.151.51801.59601,1.32999,1.328.80801.73599,1.84702,1.42999,3.11102,2.08699,1.26398.659,2.14999,1.09,2.65799,1.291,3.08701,1.41699,4.70599,3.114,4.85901,5.08701.04999.55699-.05402,1.13899-.30502,1.745-.86099,1.82201-2.53,2.733-5.00897,2.733-.862,0-1.68402-.13901-2.46802-.418-.785-.27701-1.48199-.69301-2.08798-1.252-.60703-.556-1.03702-1.088-1.29001-1.593-.45502-.96201-.68402-2.024-.68402-3.188,0-.507-.25299-.899-.75897-1.17799-.50601-.278-1.03802-.317-1.595-.11501-.65601.256-.961,1.01401-.909,2.27699"/>
      <path class="uuid-d24aa357-17d5-41f9-bc21-e465e7d1e2fc" d="m143.57791,250.91162c-.21402.32001-.21402.57001,0,.74802.07098.07199.31897.12601.74799.16101.42599.034,2.67099.052,6.73001.052l6.09198-.052.21402-.267c.142-.14102.21298-.53601.21298-1.17801-.035-1.03-.24899-1.54599-.642-1.54599-.177,0-.267.02399-.267.07898,0,.05099-.125.13202-.37399.241-.21201.07202-.41901.133-.61401.18802-.19498.05099-.48898.08899-.88098.10599-.39301.017-.89001.02499-1.495.02499h-2.40402c-2.63699-.035-4.04401-.10599-4.22098-.21201l-.26901-.16098v-4.00702c0-2.13898.02701-3.41898.08099-3.849.05402-.427.18802-.67599.39999-.74799.427-.10599,1.052.01999,1.87003.37201,1.13998.46799,2.22598.66299,3.25998.591,1.77899-.07202,2.88602-.40802,3.311-1.01501.21701-.35699.28601-.71201.21701-1.06799-.07401-.358-.29602-.617-.67102-.77701-.37299-.15701-.75598-.133-1.147.08099-.42697.24899-1.07898.36902-1.952.34802-.87399-.01703-1.539-.15002-2.00299-.40002-.25-.14301-.427-.21298-.53299-.21298-.10699,0-.29501-.04501-.561-.134-.27002-.08902-.68802-.16-1.25702-.21402-.569-.05499-.87997-.12598-.93399-.215-.05399-.08899-.08099-.74799-.08099-1.97598,0-1.23001.05399-1.91501.16-2.056.10901-.07101.328-.12601.66901-.16.33798-.03702,1.43298-.05701,3.28299-.05701h3.74399l.64102.26901c.42499.17999.728.30298.909.37299.14099.07199.272.05402.39899-.052.12302-.10699.211-.29498.267-.561.05402-.26599.09802-.61398.13202-1.043,0-.42398-.017-.68399-.05103-.772-.03699-.09198-.12698-.20599-.26898-.34799l-.32001-.26999h-6.25c-3.13699.035-4.97.082-5.505.134-.53299.05399-.802.207-.802.45398,0,.18002.05402.32101.16302.42902.10599.10599.21198.45401.31897,1.04099.108.58701.14301,3.46402.108,8.63101,0,5.62799-.14297,8.638-.42697,9.02798"/>
      <path class="uuid-d24aa357-17d5-41f9-bc21-e465e7d1e2fc" d="m172.2511,171.42273c.63998.08499,1.04599.14999,1.216.19101.21201,0,.35199.01099.41599.03299.06302.022.59799-.04199,1.599-.19199,1.00101-.14902,1.63-.245,1.88699-.28702.51001-.12799,1.384-.513,2.62201-1.151.298-.172.64999-.41599,1.056-.73599.40601-.32098.80002-.651,1.18301-.99301.38498-.33899.681-.65997.897-.95798.297-.341.51099-.578.63898-.70502.12802-.12799.19101-.224.19101-.28699,0-.065.065-.181.19202-.35101.64099-.72598,1.21597-2.02499,1.728-3.90198.16898-.68201.25598-1.69702.25598-3.04001,0-1.341-.065-2.228-.19199-2.65399-.129-.42502-.19202-.76703-.19202-1.02402,0-.255-.09598-.552-.28998-.89401-.19-.34198-.34003-.681-.44501-1.02399-.10699-.341-.20401-.53299-.289-.577-.08499-.04001-.19202-.23199-.32001-.57501-.25598-.51099-.491-.89499-.70401-1.151-.12799-.12799-.34198-.35999-.63898-.703-.897-1.10898-2.047-2.02499-3.45401-2.75-1.02301-.51398-1.75-.832-2.17499-.95999-.42603-.12698-1.27902-.276-2.55801-.44901-1.02301-.16998-2.367-.04099-4.03.384-.25601.08701-.58701.215-.99301.383-.40399.17102-.79797.34201-1.18198.51202-.38303.17297-.62003.29999-.70602.38599-.12598.08401-.29599.19-.509.31799-.896.513-1.85599,1.43002-2.879,2.75101-.38397.47-.59598.72501-.63998.76801-.08499.086-.44699.811-1.08701,2.17499-.47101,1.065-.75699,2.47202-.86398,4.22101-.10703,1.75.01199,3.15601.353,4.22101.16898.42798.25598.69498.25598.79999,0,.108.09399.35199.28601.737.19299.383.289.60699.289.66901,0,.065.12799.31201.384.737.255.427.41599.66299.478.70401.065.04398.25699.31.578.79999.31799.492.672.90601,1.05499,1.24701,1.064,1.02399,1.72699,1.535,1.98401,1.535.03998,0,.14798.095.31598.289.173.19199.29001.28598.35501.28598.06299,0,.28601.08701.67001.25601,1.151.51199,2.23898.83301,3.26199.95999m-5.30899-6.26901c-.255-.34097-.522-.75699-.79901-1.245-.27802-.491-.51102-1.004-.703-1.539-.19101-.53-.30899-.98898-.35199-1.37299-.08502-.427-.17102-.87201-.25702-1.345-.08499-.423-.07498-1.04401.03302-1.853.10599-.80899.246-1.47101.41699-1.98199.16901-.42801.28601-.758.35098-.99301.06302-.23401.16901-.43701.319-.60699.14902-.17001.22501-.276.22501-.32101,0-.08298.08499-.245.255-.47998.17001-.233.384-.5.63901-.79901.25699-.298.47-.53299.64099-.703.81-.853,1.70599-1.51401,2.686-1.983,1.10901-.51099,2.30399-.76898,3.582-.76898.896.043,1.492.08698,1.79099.12799.12802.04401.42502.13.89603.25699.297.08701.521.18201.67099.28702.14801.10699.28699.16199.41599.16199.16901,0,.56302.21201,1.18402.63901.617.42599,1.09698.80798,1.43799,1.151.427.46899.75601.87601.98999,1.21399.23602.34302.375.55701.41702.64102.42599.46997.83298,1.42999,1.21698,2.87997.16901.724.254,1.578.254,2.556,0,.983-.14899,1.93201-.44699,2.84802-.298.91599-.50299,1.45999-.608,1.62997-.10599.17102-.16.30002-.16.38501,0,.17001-.32999.62799-.991,1.375-.66098.74802-1.20599,1.26901-1.63199,1.56702-.427.29797-.72501.51099-.89502.63898-.172.12802-.31.19302-.41599.19302s-.30899.073-.60699.22299c-.29901.14899-.746.31-1.34302.479-1.23798.34198-2.38998.383-3.453.12799-.38599-.086-.71698-.14899-.99197-.19199-.27701-.04102-.60901-.16-.992-.35001-.383-.19202-.59802-.28799-.64102-.28799-.04199,0-.16998-.065-.38199-.19302-.215-.12799-.43799-.26498-.673-.41498-.23401-.14801-.39499-.26602-.479-.354-.63998-.55099-1.17398-1.08502-1.59998-1.59802"/>
      <path class="uuid-d24aa357-17d5-41f9-bc21-e465e7d1e2fc" d="m64.0119,169.08762c-.151.61902-.255.95001-.32001.99103-.065.043-.11902.13898-.16101.289-.04199.14798.01102.28699.16101.41397.14798.12903.36099.23602.63898.32101.27701.08499.832.11801,1.66302.09601.83298-.021,1.375-.117,1.63-.28799.34299-.16901.38599-.46802.12997-.89603-.29999-.46799-.47098-1.11899-.513-1.94897-.04199-.83401-.06299-3.38101-.06299-7.64502,0-5.28699.021-7.952.06299-7.995.08502-.17001.25601-.10599.513.19202.59702.59698,1.427,1.51398,2.49503,2.74899.50998.642.84097,1.047.991,1.216.14798.16898.22299.27698.22299.31998s.255.33102.76898.86401c.51001.535.91501.98999,1.21402,1.375.29898.383.54401.66199.73599.83099.19202.17001.28799.29901.28799.38501,0,.08499.10602.22299.319.414.21301.19299.491.492.832.896.341.405.59702.70499.76801.89499.16901.19202.53299.629,1.08701,1.31302.55399.681.87399,1.022.95898,1.022.08401,0,.129.06299.129.19098,0,.13.08301.246.255.354.17102.10699.36301.33099.57602.672.341.59702.36099,1.42999.065,2.49301-.08801.427-.15201.758-.19302.99298-.04199.23502-.11798.39401-.224.47803-.10699.086-.16098.21298-.16098.38498,0,.51199.66098.767,1.98398.767,1.28-.043,2.047-.19199,2.30402-.44901.12698-.12698.17999-.22299.159-.28598-.022-.065-.13901-.31-.353-.73599-.21399-.384-.341-1.04401-.384-1.98203-.04199-.939-.06299-3.83899-.06299-8.69897,0-6.31302.06299-9.76602.19098-10.36401.12802-.59601.25601-.98001.383-1.151.25702-.384.21503-.68201-.12698-.896-.12799-.12799-.755-.19202-1.88602-.19202-1.12799,0-1.78198.08701-1.95099.25601-.17001.173-.245.32101-.22501.448.022.12799.09802.341.22501.64099.25601.63901.40399,1.341.44901,2.11102.04001.767.06198,2.64297.06198,5.62698,0,3.83801-.04199,5.78101-.12698,5.82202-.08701.043-.298-.108-.64099-.44901-.34201-.34-.85202-.91602-1.534-1.72501-.513-.59799-.79001-.89499-.83301-.89499-.04102,0-.10602-.08603-.19-.25702-.086-.21399-.70401-.94-1.85501-2.17599-.384-.46799-.69299-.84201-.92798-1.11899-.23502-.27502-.41501-.49902-.54401-.67102-.46899-.513-1.129-1.25998-1.98199-2.23898-.81003-.939-1.216-1.44901-1.216-1.535,0-.08499-.09601-.181-.28799-.28799-.19202-.108-.28802-.20203-.28802-.289,0-.08502-.19199-.319-.57599-.703-.42599-.46802-.789-.85202-1.08701-1.151-.34201-.42599-.71399-.76901-1.11899-1.02301-.405-.25699-.92902-.37399-1.56702-.35199-.64099.022-1.035.117-1.18298.289-.14999.16998-.172.362-.065.573.10599.215.246.577.41699,1.08899.168.51199.24399,3.92502.22299,10.233-.021,6.31302-.10599,9.776-.25497,10.39499"/>
      <path class="uuid-d24aa357-17d5-41f9-bc21-e465e7d1e2fc" d="m111.70779,250.93912c.51498-.267.84399-.474.98599-.61499.53598-.535.49799-1.103-.10501-1.70999-.14301-.17801-.383-.267-.72101-.267-.341,0-.63199.08899-.884.267-.211.14301-.33698.21201-.37097.21201-.035,0-.22302.082-.561.242-.34.16098-.92801.29398-1.76401.39999-.83899.10898-1.729.11798-2.673.02899-.94101-.09-1.815-.15201-2.61801-.18701-.79797-.03699-1.27197-.12598-1.41498-.26898l-.16101-.215-.05399-6.62402c0-4.237.02899-6.91098.082-8.01398.05298-1.10602.22098-1.85202.508-2.245.10599-.17502.12299-.319.05099-.42401-.14001-.28702-.79901-.41299-1.97601-.37601-.88998,0-1.39798.07199-1.522.21201-.125.14401-.14297.33099-.05399.56299.08899.23203.207.58801.34799,1.06802.14301.47897.19501,3.28497.16,8.41599v7.69299l-.21201.80301c-.14301.56699-.24899.89001-.323.96201-.25.24899-.16098.479.26901.69299.21298.10699.979.16,2.297.16.92401,0,2.07401.03799,3.444.10699,1.371.07101,2.095.125,2.16599.159.07202.10602.58701.099,1.54901-.02399.96201-.125,1.711-.276,2.24399-.45401.354-.108.79102-.29599,1.31003-.56201"/>
      <path class="uuid-d24aa357-17d5-41f9-bc21-e465e7d1e2fc" d="m101.80499,149.92993l.19299-.31897,2.17398.064c1.74902,0,2.96301.19199,3.646.57498.34003.17001.59601.129.76703-.12799.34-.46799.46899-1.10901.38498-1.91901-.086-.81-.28-1.25699-.577-1.34198-.16998-.04303-2.901-.08603-8.18799-.12903h-.76801c-3.83701,0-6.08801.02301-6.74701.06403-.66199.04398-1.05499.21298-1.18298.51099v.06299c-.129.21701-.17102.70502-.129,1.474.04199.76703.14999,1.22501.31998,1.37302.17102.15201.36102.16199.57602.03299.81-.383,1.95999-.616,3.45398-.70398,1.492-.086,2.409.043,2.75.38397l.194.255.06403,9.21201c0,4.948-.03302,7.879-.09802,8.79501-.06299.91898-.246,1.67499-.54199,2.26999-.173.34299-.215.55499-.12799.64099.08499.12701.40399.27701.95798.44702.255.043.72501.064,1.40701.064.384-.04102.70401-.064.95901-.064.939-.17001,1.237-.51001.89697-1.02301-.12799-.168-.267-.521-.41498-1.05499-.15002-.534-.215-3.88-.194-10.04401.022-6.16.09598-9.327.22501-9.49802"/>
      <path class="uuid-d24aa357-17d5-41f9-bc21-e465e7d1e2fc" d="m137.15271,156.39053c.16898-.63898.435-1.31998.79999-2.047.35999-.72598.66901-1.19098.92599-1.40698.129-.12701.194-.22299.194-.28601,0-.065.22299-.311.67001-.737.448-.42499.73599-.66098.86298-.70401.17102-.08398.47-.27597.89603-.57397,1.10797-.72702,2.30298-1.17502,3.582-1.345,2.51498-.341,4.81799.14999,6.90799,1.47198.47.298.746.44699.83301.44699.08398,0,.24399.17203.47998.51102.23199.34299.371.61899.414.83301.08401.29898.23401.44598.44702.44598.215,0,.40598-.168.57797-.51199.168-.33899.233-.957.19-1.85199-.043-1.19501-.23499-1.85703-.57397-1.98401-.17203-.04102-.32101-.12799-.44901-.25699-.17001-.12802-.66101-.40402-1.47-.83002-.81201-.427-1.27902-.64099-1.409-.64099-.08401,0-.41501-.095-.99103-.28799-.57498-.19-1.70599-.28802-3.38998-.28802-1.68301,0-2.867.108-3.54901.32001-1.49399.51102-2.496.94-3.00699,1.28-.16901.12802-.384.255-.64001.384-.55298.341-1.10999.81-1.66299,1.40701-.172.16998-.298.25598-.384.25598s-.159.07401-.22299.22202c-.065.15201-.159.29099-.28699.41901-.13.12698-.237.25497-.323.38199-.80801.98099-1.21301,1.51401-1.21301,1.60001s-.08701.26599-.255.543c-.173.27798-.25598.46799-.25598.57498,0,.108-.08701.311-.25803.608-.29898.599-.55399,1.62302-.767,3.069-.21198,1.28101-.12698,2.77502.25601,4.48102.08499.298.23401.72299.44699,1.27701.215.55399.45001,1.099.70502,1.63397.25598.53201.44699.88303.57599,1.05402.17001.25601.255.41501.255.479,0,.06299.14801.267.448.60999.298.34.64001.69101,1.02399,1.05402.38501.362.68002.629.89502.798,1.10898.85397,1.72598,1.28,1.85498,1.28.04102,0,.16901.064.384.19199.59601.427,1.556.76801,2.87802,1.02301.34198.08499.767.19098,1.27798.319,1.11002.215,2.48599.17099,4.12701-.12802,1.64099-.29599,3.01801-.78699,4.12598-1.46899.46802-.25699.80801-.44901,1.02301-.578.341-.16898.55402-.43698.64099-.79898.08301-.36102.10602-1.03302.06302-2.01501-.08499-.63901-.17102-1.086-.25601-1.34299-.08701-.25601-.23401-.383-.448-.383-.215.04398-.35199.18198-.41699.41498-.06302.23502-.17001.41501-.31702.54501-.14999.12698-.22498.224-.22498.28699,0,.065-.129.23502-.384.51102-.255.27798-.41501.41699-.48001.41699-.06299,0-.16101.06299-.28799.19101-.12799.12799-.50101.33099-1.12.60699-.61801.28-.992.41699-1.11902.41699-.12698,0-.362.065-.703.19202-.42599.21399-1.06598.32999-1.91898.35199s-1.62003-.05402-2.30402-.224c-1.44901-.341-2.49298-.746-3.133-1.216-.341-.21301-.534-.319-.57501-.319-.12799,0-.396-.19101-.79999-.577-.40399-.38199-.79999-.78799-1.18399-1.215-.383-.42599-.57602-.681-.57602-.767,0-.04202-.064-.129-.19199-.25601-.595-.68201-1.108-1.95999-1.534-3.83798-.08502-.42502-.09702-1.056-.03201-1.888.064-.82901.17999-1.543.35202-2.14203"/>
      <path class="uuid-d24aa357-17d5-41f9-bc21-e465e7d1e2fc" d="m102.69968,296.19873c.35501-.2.772-.494,1.255-.87201.47998-.37999.948-.77199,1.40399-1.17799.45502-.405.80899-.783,1.06302-1.138.353-.405.60797-.68401.75897-.83501.15002-.15199.229-.26599.229-.342s.07401-.215.22601-.416c.76001-.86099,1.44101-2.403,2.04898-4.631.203-.811.30502-2.013.30502-3.606,0-1.59399-.07501-2.64499-.228-3.151-.15201-.50598-.228-.91199-.228-1.21399,0-.30499-.11401-.65799-.34201-1.064-.22699-.40399-.40701-.80899-.53101-1.21402-.12799-.40399-.23898-.63199-.341-.68399-.10098-.048-.22699-.276-.38-.68298-.30399-.608-.58298-1.06201-.836-1.366-.15298-.15201-.40601-.42902-.758-.83401-1.06299-1.31699-2.42899-2.405-4.099-3.26599-1.216-.60602-2.077-.987-2.582-1.13901-.50699-.14999-1.51801-.328-3.03601-.53-1.21597-.203-2.81-.052-4.78299.45401-.30399.103-.69699.254-1.17599.45499-.48199.20401-.95001.40701-1.405.608-.45502.203-.733.35501-.836.457-.14999.10101-.354.228-.60602.38-1.06299.60599-2.20297,1.694-3.41599,3.263-.45599.55701-.711.862-.76099.91-.10001.103-.52902.96399-1.29001,2.582-.55701,1.26599-.89902,2.93698-1.02402,5.01099-.12799,2.075.01102,3.746.41702,5.00999.203.507.30399.82201.30399.94901,0,.12599.11401.41699.34201.873.22699.455.341.72099.341.797,0,.075.15298.367.45499.873.30402.506.49301.786.57001.836.07599.05.30399.367.68298.94701.38.58499.79703,1.077,1.25302,1.48199,1.26398,1.215,2.04898,1.821,2.353,1.821.04898,0,.17801.114.379.34.203.228.34299.34401.41901.34401.07599,0,.341.101.79599.30299,1.367.608,2.659.98599,3.87201,1.138.759.101,1.23999.17799,1.44199.23.25201,0,.418.01201.49402.03601.077.02699.70898-.04901,1.89798-.22701,1.18802-.17801,1.936-.29201,2.24002-.342.60699-.151,1.64297-.608,3.10999-1.367m-8.65298-1.74501c-.45401-.10199-.84702-.17699-1.17603-.22899-.33099-.05-.72-.188-1.17798-.416-.45502-.23001-.707-.343-.75803-.343-.04999,0-.202-.075-.45499-.22701-.254-.153-.51999-.315-.798-.494-.27798-.17799-.46799-.31699-.569-.418-.759-.65799-1.39398-1.28899-1.896-1.896-.306-.405-.621-.897-.95099-1.48199-.32901-.58-.60699-1.188-.836-1.82201-.22601-.632-.36502-1.17599-.41501-1.631-.103-.504-.20502-1.037-.30402-1.595-.10199-.505-.09-1.239.03702-2.202.12601-.95999.29199-1.745.49301-2.35098.202-.50702.34198-.90002.418-1.177.07498-.27802.20099-.52002.379-.72302.17798-.19897.26599-.328.26599-.379,0-.10001.10199-.29099.30301-.57098.20297-.276.45599-.59201.75998-.94702.30301-.35397.556-.63199.759-.83499.95999-1.01099,2.02301-1.797,3.18701-2.354,1.31699-.60699,2.73401-.91,4.25101-.91,1.06497.05002,1.77197.10101,2.12698.15201.15302.05002.50601.151,1.06299.30402.35202.10199.62003.215.79703.34s.34299.19.49399.19c.20099,0,.67001.255,1.40399.759.73401.508,1.30301.96399,1.70801,1.366.505.55899.89801,1.03799,1.17899,1.44199.27502.40601.43903.659.49103.759.50497.55899.987,1.698,1.44299,3.41699.202.86102.302,1.87302.302,3.03801,0,1.16299-.17599,2.28899-.53,3.37799-.354,1.09-.59601,1.733-.72202,1.935-.12601.203-.19.356-.19.45601,0,.202-.392.746-1.17499,1.631-.78601.888-1.42999,1.509-1.93701,1.86099-.50699.354-.86099.606-1.061.759-.20499.15201-.36798.22701-.495.22701-.12601,0-.36798.09-.72101.26601-.35498.17799-.88599.36699-1.59399.56999-1.46698.407-2.83499.45599-4.09998.15199"/>
      <path class="uuid-d24aa357-17d5-41f9-bc21-e465e7d1e2fc" d="m122.4025,149.03482c.08499-.42599.224-.81097.41498-1.15097.19202-.341.26501-.57602.224-.70401-.08701-.298-.70398-.48999-1.85599-.57501-.767,0-1.38699.06302-1.85199.19101-.60001.17001-.81302.44901-.64301.83301.08499.16998.21399.48898.38498.957l.25803.64099v19.44699l-.32303.83002c-.29797.811-.39398,1.30099-.28699,1.47198.10599.17001.58701.276,1.43799.319,1.578.08499,2.496-.022,2.75201-.319.12799-.17099.09601-.43799-.09601-.79999-.19098-.36301-.32999-.77802-.41498-1.24701-.08701-.47-.11801-3.784-.09601-9.948.01999-6.16.05298-9.47601.09601-9.94601"/>
      <path class="uuid-d24aa357-17d5-41f9-bc21-e465e7d1e2fc" d="m79.9165,233.65543c.33798-.03699,1.43298-.05698,3.28598-.05698h3.73999l.64203.26898c.42697.18002.728.30301.909.37302.13898.07199.272.05399.39798-.052.12402-.10699.215-.29401.27002-.561.05298-.26599.09598-.61401.13-1.043,0-.42401-.01703-.68399-.052-.772-.03601-.09201-.125-.20599-.26602-.34799l-.32401-.27002h-6.24597c-3.13702.035-4.97302.082-5.505.134-.53601.05402-.802.207-.802.45401,0,.17999.05499.32101.16098.42999.10501.10501.21201.453.31802,1.04001.10898.58701.14499,3.46399.10898,8.63199,0,5.62802-.14398,8.63702-.427,9.02701-.21298.32101-.21298.57101,0,.74899.07101.07101.31802.125.74701.16.42599.034,2.673.05301,6.73099.05301l6.09201-.05301.215-.267c.14001-.14099.21201-.53601.21201-1.17801-.035-1.03-.24899-1.54599-.63901-1.54599-.17798,0-.26999.02402-.26999.07901,0,.05099-.125.13199-.37201.241-.21298.07199-.41901.134-.61398.18799-.198.05099-.491.08902-.884.10602-.39001.01797-.88699.02499-1.49402.02499h-2.40399c-2.638-.035-4.04401-.10602-4.22198-.21201l-.26801-.16101v-4.00699c0-2.13901.026-3.41901.08099-3.849.05402-.427.18701-.67599.39999-.74799.42902-.10602,1.05099.01999,1.87.37299,1.14001.46701,2.22601.66199,3.26202.59,1.77899-.07199,2.884-.40799,3.31097-1.01498.21402-.35703.28403-.71201.21402-1.06802-.07101-.358-.29602-.61697-.668-.77698-.375-.15802-.758-.133-1.147.08099-.42902.24899-1.07901.36899-1.952.34799-.87399-.017-1.543-.14999-2.00302-.39899-.25-.14401-.42999-.21402-.53598-.21402-.10699,0-.293-.04498-.56-.133-.26901-.08899-.686-.16098-1.25601-.215-.57001-.05499-.88098-.12601-.935-.215-.05499-.08899-.08099-.74802-.08099-1.97601,0-1.22998.056-1.91498.16199-2.056.10602-.07098.328-.12598.66702-.16"/>
      <path class="uuid-d24aa357-17d5-41f9-bc21-e465e7d1e2fc" d="m11.6387,231.35904c.01999.00101.142.022.64801.26102.56198.241,1.33197.38998,2.28497.43799.66702.043,1.25302.11301,1.75601.20901.28201.03098.629.047,1.039.047.82001,0,1.89099-.06201,3.203-.186.55301-.048,1.37-.19901,2.49899-.461,1.10501-.254,1.84702-.45801,2.203-.60199.23901-.09302.51501-.18503.828-.27502.33499-.09998.651-.237.93701-.409.32797-.19699.42499-.20898.43399-.20999.091,0,.20499,0,1.439-.694,1.00299-.56702,1.28-.69299,1.35101-.716.289-.08899.36398-.26199.38199-.37299.04599-.052.22-.216.871-.64301.737-.561,1.57498-1.297,2.48599-2.186,1.19202-1.16299,1.39902-1.52301,1.42801-1.71701.02499-.03198.08899-.10999.26199-.27499.29901-.285.405-.44.401-.556,0-.00299.022-.05399.151-.177.37201-.35501.836-1.19199,1.41599-2.56201.569-1.34198.93402-2.42798,1.08301-3.224.298-1.37.384-2.97998.26102-4.784-.12302-1.80499-.388-3.36398-.785-4.64301-.35901-1.01898-.56799-1.63898-.66-1.94699-.25-.85498-.496-1.29099-.80002-1.39899v-.00201c0-.48999-.41599-1.18399-1.31198-2.189-.28101-.30798-.517-.64401-.72601-1.035-.30399-.383-1.104-1.19199-2.388-2.41-.448-.379-.948-.75998-1.50098-1.14099-.668-.40701-1.22803-.79999-1.70001-1.19101l-.082-.047.63699-.55298c.896-.78101.96301-.93802.961-1.06403.00101-.004.02802-.08798.26102-.30698.29599-.28302.40198-.43701.39798-.561.004-.009.03101-.09702.26602-.427.30899-.49301.608-1.36401.914-2.67801.05099-.34799.03998-.944-.03403-1.76801-.077-.85001-.19199-1.43399-.34497-1.76801-.41302-1.224-.82602-1.97098-1.23801-2.26398-.082-.077-.194-.22702-.332-.44501-.10501-.16602-.431-.52802-2.022-1.72-.22101-.21201-.681-.44601-1.40399-.71701-.70801-.26199-1.20401-.414-1.52902-.46698-.45599-.048-3.06598-.07101-7.97598-.07101-7.34201,0-7.68301.164-7.797.22202-.27502.08499-.452.23199-.52701.435-.08499.22998-.02701.49899.19.84.07199.09198.228.384.47299,1.31198l.28799,1.13303v8.599c0,7.077-.03998,9.03-.07498,9.42798-.05801,1.09302-.55099,1.31802-.914,1.392-.27002.05301-.595.186-.991.41-.478.272-.60703.28302-.61902.284-.12698,0-.32498.04703-.83398.392-.41202.28101-.52902.30701-.52902.30902-.19299,0-.53497.134-2.36398,1.737-1.29501,1.13699-2.45502,2.78598-3.44901,4.914-.15298.392-.27798.86301-.383,1.465-.04999.60999-.07401,1.48599-.07401,2.67599,0,1.20099.04901,2.05899.14999,2.629.349,2.034,1.40402,4.18701,3.13501,6.396.25699.33801.66.78201,1.19901,1.31702.707.703.92899.84399,1.065.86899.04401.02802.18201.12701.565.46899.42099.37302.80298.62601,1.17099.77499.33899.13901.422.20602.422.18201.04102.11301.13602.22501.81702.54901.42798.203.71899.35001.88599.453.10001.047.314.133.64401.254.32199.117.62997.22198.92999.319.42099.13098.573.14899.655.14899m2.29898-41.91299c0-2.80899.07703-3.686.14102-3.927.04498-.17099.16998-.405.75-.45401l.08301-.00699.064-.06201h5.133c2.52499,0,4.10999.04501,4.71201.13602.577.08899,1.19998.35999,1.86398.80899.64401.39301,1.18301,1.02002,1.60202,1.85101.22998.52798.35898,1.159.38397,1.871.02103.70599-.08099,1.27798-.31097,1.711-.60303,1.28299-1.66901,2.15799-3.17801,2.60599-.25101.09-1.44901.198-5.73999.198l-5.11102.06702-.15799-.20001c-.07101-.11099-.23502-.75299-.23502-4.31799v-.28101Zm-6.33197,35.63199c-1.83502-1.67798-2.04202-2.07199-2.05902-2.13599,0-.08801-.021-.17099-.41098-.729-.26703-.37698-.31802-.496-.32501-.496v.00101c0-.08099-.022-.19901-.28201-.73099-.16498-.33701-.29599-.67603-.388-1.009-.09998-.34802-.20999-.76602-.33099-1.25302-.117-.47098-.177-1.12299-.177-1.93597,0-.81201.133-1.62201.39401-2.40802.24799-.755.36398-1.005.41-1.086.203-.08301.26498-.37601.29401-.513.04199-.19299.17297-.41599.39099-.664.30399-.349.39798-.50598.41901-.621.03497-.052.168-.216.66998-.69199.18701-.177.43802-.383.75-.61002.31302-.22998.629-.45099.948-.65799.31302-.20801.629-.40399.94601-.58899.36798-.215.58798-.29501.715-.32401.25101-.06702.43298-.06302.479-.03101.06598.15799.16699,1.151.108,6.02701v5.83798l-.358,1.09402c-.23102.823-.32001.98398-.30701.98398h.00101c-.21701.13901-.21701.44501-.21701.54602,0,.448.56.646.77301.71899.452.099,1.19.146,2.25699.146,1.09,0,1.755-.07401,2.08002-.229.28998-.12299.46597-.29401.521-.509.05399-.21298-.01501-.44501-.20901-.69101-.09-.11398-.24701-.39899-.47699-1.121l-.28302-.80197v-6.319c.061-5.354.134-6.39301.164-6.51703.01401-.03299.05902-.13199.31003-.17899.11899-.02701.47598-.03299,1.52899.172.81299.16202,1.414.332,1.802.51599.242.09201.552.228.939.41101.45401.216.63.354.69699.431.17599.20502.297.29199.384.28299.00601.00302.06799.03201.26901.19702.19199.16299.384.345.56799.54199.18298.19598.37698.42599.57401.67899.194.25601.33899.45102.422.56702.616,1.12799.92801,2.077.92801,2.82498,0,.61401.056,1.00403.17398,1.22702.28201.53598.836.85999,1.67902.965.452,0,.87799-.186,1.25098-.54001.44501-.353.53302-.53699.56201-.66299.01801-.08701.04001-.28299.04001-.98901,0-1.38498-.23102-2.54999-.70001-3.48798-.31299-.47-.327-.60101-.328-.604,0-.13-.061-.33401-.78799-1.26199-.49399-.63602-.97601-1.15402-1.41-1.52002-.35498-.384-.82599-.78198-1.39798-1.186-.84201-.58798-1.01001-.638-1.12201-.638h-.00101c-.01999-.00098-.138-.026-.59-.284-.53699-.30399-.73801-.34299-.85199-.34299-.02301-.00101-.16602-.017-.74701-.29199-.46701-.22501-.89801-.33902-1.271-.33902-2.311-.05899-2.82202-.31598-2.91901-.40601-.039-.06699-.16602-.47-.16602-2.85498,0-2.40399.14203-2.815.186-2.883.00702-.01001.16901-.24002,1.71802-.24002,4.367-.04199,6.89899.022,7.49698.194.68802.26202.91602.29602,1.03702.29602.03198.00098.233.02698,1.19199.46799.72202.33099,1.423.68201,2.08502,1.04199.90799.492,1.07098.659,1.10397.707.21802.27701.332.36102.42902.362.039.017.23099.129,1.03.88702.64099.60898,1.17099,1.13498,1.57501,1.56598.51199.53201.866,1.091,1.04599,1.64301.02701.10199.10001.39099.32999.448.02802.039.091.14099.19702.39099.16098.38202.332.668.51999.871.146.159.23599.319.27399.491.05701.23001.186.65802.375,1.242.24002.728.51102,2.035.80402,3.88501.186,1.03299.09,2.26599-.29001,3.668-.155.48999-.22998.83301-.22998,1.04401,0,.19901-.117.67099-.67502,1.78299-.457.91602-.93399,1.729-1.41199,2.41101-.638.83301-.638.922-.62601.96201-.00201.00198-.03299.05499-.207.17899-.229.16299-.353.311-.384.461-.05301.06302-.224.23999-.77798.745-.56802.51501-.948.866-1.12601,1.03601-1.44601,1.10101-2.987,1.98401-4.58801,2.629-1.43799.638-2.47198.95999-3.073.95999-.26498,0-.75198.07202-1.448.21402-1.681.36499-3.60699.36298-5.72-.00101-.91501-.18201-1.91998-.45999-2.992-.83099-1.43399-.45401-2.841-1.30902-4.18198-2.53802"/>
      <path class="uuid-d24aa357-17d5-41f9-bc21-e465e7d1e2fc" d="m61.2851,180.56393c-.43399.10001-.80899.151-1.116.151-.35001,0-.79898.08502-1.33301.255-.51599.16501-.87598.26199-1.103.298-.26797.04501-.539.13501-.802.26901-.24799.12299-.677.30499-1.28198.548-.66299.28998-1.35602.668-2.05499,1.12-.21002.12399-.37601.22998-.5.31299-.25601.17099-.65601.487-1.17502.927-.314.22501-.40698.26199-.38998.263-.121.00101-.254.06601-.54102.38501-.17099.19199-.478.48999-.965.936-.65701.60098-.76498.75098-.78201.86398-.02298.03699-.10498.14301-.36697.409-1.10202,1.15302-1.32501,1.55099-1.353,1.77002-.01901.03098-.07303.11298-.22803.30099-.23398.28699-.32999.46399-.32797.59399-.00201.004-.022.091-.23001.366-.224.298-.323.50201-.323.66199,0,.00702-.004.07501-.12799.21701-.13.14999-.23602.29102-.34302.45401-.69598,1.51801-.69598,1.67398-.69598,1.758,0,.02899-.01901.16501-.255.66998-.26501.55902-.29901.75201-.29901.867,0,.056-.02399.24301-.17099.849-.29602.87601-.49701,2.25101-.59799,4.08701-.10501,1.83499-.07202,3.228.09497,4.13901.37701,2.25699.70602,3.64801,1.013,4.255.20401.366.21503.48099.21503.50098,0,.08102,0,.24902.513,1.30002.34299.70801.67798,1.34601,1.02197,1.94998.513.90903.64001,1.02701.73801,1.08401,0,.17001.108.371.36099.672,1.58502,1.918,2.66602,3.078,3.31003,3.54999.22998.15302.504.367.84097.66101.45502.37399.83701.64999,1.13702.823.28699.16299.694.40802,1.22598.73199.784.48502.93701.52701,1.034.52701h.00101c.017.00101.11801.022.51102.21899,1.25198.668,3.12,1.151,5.543,1.43701.49399.08301.89697.12601,1.17999.12601h.008c.146.01199.31699.01898.513.01898.483,0,1.11899-.03799,1.92401-.11301,1.13098-.10397,1.88998-.21698,2.293-.33899.71399-.125,1.17099-.229,1.34598-.30701.319-.04398.63702-.15799.94302-.336.35797-.203.45798-.21399.46799-.215.151,0,.32199-.06198.522-.186.108-.06799.32599-.177.758-.31998.341-.12802.828-.371,1.448-.72202.63699-.35901,1.02899-.62601,1.19901-.81699.116-.13501.173-.164.16501-.16602.14297,0,.34998-.01401,2.004-1.603,1.06699-1.02701,1.819-1.84399,2.224-2.41.332-.375.539-.61301.62299-.71899.12-.14801.17502-.272.17102-.35501.00198-.00699.03098-.086.23297-.35599.26801-.35501.32303-.49399.319-.57001.00201-.008.02701-.078.20401-.323.17801-.24301.397-.66998.673-1.30499.31699-.73999.42401-.87.414-.87h-.00101l.05899-.03.035-.05502c.22101-.353.59003-1.45898,1.13101-3.379.53799-1.90698.70801-4.271.5-7.026-.11301-1.68399-.19901-2.10199-.25299-2.25497-.42102-1.57501-.483-1.98602-.483-2.09201,0-.11801-.05499-.367-.452-1.39001-.39902-.84299-.54901-1.22-.60703-1.38898-.08698-.26102-.27399-.63702-.569-1.14502-.24399-.44699-.42798-.79099-.543-1.02499-.13199-.302-.34598-.659-.64099-1.061-.28198-.38-.48401-.672-.61301-.88901-.21399-.297-.80499-.94897-1.80399-1.991-1.36099-1.42499-1.453-1.439-1.55801-1.418l-.04498-.06299c-.09601-.095-.353-.298-.76102-.60199-.673-.51001-.73398-.50702-.78198-.50601-.00201-.00101-.04001-.01401-.116-.05801-.22202-.22299-.72-.53098-1.565-.96698-.83401-.42401-1.51801-.729-2.082-.92999-1.08099-.41501-2.151-.70801-3.185-.87302-2.763-.40399-4.53702-.36499-5.49402-.15201m4.05502,3.228c.61298.05902,1.103.14902,1.47598.27103.89499.20499,1.892.55298,2.96799,1.03198,1.082.48102,1.89401.92599,2.40701,1.31799.271.22601.48099.37201.616.431.19601.15903,1.16202,1.10501,2.871,2.81302.18701.18799.23001.26801.237.26801v-.00201c0,.173.095.31702.25.39001.04901.03.26501.228,1.01501,1.51199.11697.19598.31998.58301.60498,1.14999.35699.71701.405.83301.40601.81799,0,.09601.03299.24899.271.71899.20001.40402.22101.55701.22101.604,0,.11301.02701.33102.25699.90402.80402,2.41299.96802,5.14697.483,8.12-.20798,1.078-.35599,1.741-.453,2.026-.10599.32401-.189.63498-.25098.952-.05902.289-.168.61398-.32401.96298-.48599,1.095-.871,1.84601-1.14801,2.24002-.16599.25-.41101.65601-.74399,1.23999-.23001.38501-.46802.70001-.702.93799-.29202.29501-.39001.418-.42203.50702-.056.06799-.258.28699-.98999.996-.85001.827-1.19501,1.13498-1.332,1.24399-.51401.396-1.13699.815-1.85199,1.24402-.90701.543-1.11099.60797-1.138.61298-.08801,0-.22601.02301-.78201.302-.35498.177-.72299.315-1.09299.41202-.561.14798-.73599.24799-.82501.31998-.01099.00803-.129.086-.745.16501-.47198.06201-1.09698.155-1.87299.27802-.927.121-1.634.16098-2.06601.12698-.17801-.04199-.681-.12698-1.49802-.25-1.44498-.202-3.13898-.77301-5.04498-1.70599-.478-.19901-.97699-.48999-1.48599-.86401-.61102-.444-.83502-.65799-.91702-.75497-.10699-.272-.302-.30402-.37799-.30402-.00601-.00101-.017.02701-.229-.15698l-.66498-.57602c-.15402-.15201-.40802-.435-.755-.845-.34802-.40601-.67599-.798-.98001-1.16699-.306-.36401-.49701-.603-.556-.69-.12201-.246-.297-.54401-.535-.91501-.26199-.401-.36398-.64099-.40399-.76999-.04501-.14499-.12201-.401-.31799-.46201-.02301-.034-.073-.117-.151-.29999-.64902-1.51501-.71899-1.85901-.71899-1.935,0-.10602-.02301-.29202-.20001-.82501-.35901-.91599-.60199-2.26801-.72299-4.01901-.11902-1.74597-.061-3.05197.17798-3.892.08902-.358.16302-.74698.21902-1.15799.05798-.40298.14398-.707.25198-.905.13602-.246.22601-.53201.26999-.83701.15701-.827.72702-2.06198,1.69601-3.67999.36398-.647.64999-1.11499.82199-1.362.211-.211.405-.45001.57401-.70099.117-.155.358-.41702.716-.77402.37698-.37601.767-.745,1.16-1.099.40601-.366.73401-.64999.97501-.853.43799-.35901.85999-.651,1.25497-.867.42902-.23599.68903-.38498.84402-.492.379-.34299,1.27798-.73898,2.67599-1.17798,1.08099-.32202,2.20499-.548,3.33798-.66901.39001-.04001.86502-.048,1.44202-.03101.582.022,1.186.064,1.79901.12299"/>
      <path class="uuid-d24aa357-17d5-41f9-bc21-e465e7d1e2fc" d="m50.34259,250.91101c-.211.39301-.229.65903-.052.802.07001.03702.33801.09201.802.16101.39301.07199,1.71701.09799,3.98001.07901,2.26001-.017,3.67899-.04202,4.246-.07901.57098-.069.99899-.17801,1.28299-.32098.284-.14301.50101-.21503.642-.21503.14401,0,.534-.15799,1.17502-.48099.64099-.32101,1.05298-.56699,1.23099-.74701.10599-.10599.371-.32199.80099-.63898.42502-.32401,1.03201-.98203,1.81601-1.98001.069-.07101.151-.20401.23898-.39902.08902-.19498.26703-.52499.53601-.98898.267-.46201.41699-.80301.45401-1.017.03598-.21301.10599-.478.21201-.79901.21399-.60699.32098-1.505.32098-2.69901,0-1.19199-.10699-2.09299-.32098-2.69998-.10602-.35202-.15802-.56702-.15802-.63901,0-.14301-.17999-.543-.535-1.202-.35498-.659-.62399-1.112-.802-1.362-.21198-.28601-.375-.51599-.48099-.69501-.49799-.64099-.82098-.96298-.96201-.96298-.07199,0-.14301-.05402-.21298-.16-.07202-.10602-.37402-.349-.90701-.72-.535-.375-.96301-.65201-1.28299-.82901-1.034-.49899-2.02402-.82001-2.966-.96301-.94501-.14099-2.62799-.194-5.052-.15799-2.384.034-3.66501.10602-3.84601.21201-.354.17801-.38901.48199-.10599.909.14099.21399.242.48099.29401.80301.05399.319.082,3.11499.082,8.38699.034,4.23901.034,6.77798,0,7.61401-.03601.83698-.17801,1.43298-.43002,1.78897m2.88702-16.832l.53299-.47897h2.03101c1.604-.035,2.85898.05499,3.767.267.90799.21198,1.737.57098,2.48398,1.07199.28403.211.479.354.59003.423.10599.07401.284.233.53098.48401.42902.42398.77701.82599,1.043,1.20099.267.37299.49902.76801.69601,1.17499.19299.41202.34601.828.45401,1.255.10699.42801.17599.892.21298,1.39099.10602,1.21002-.01999,2.26102-.37299,3.15302-.46402,1.27899-1.05099,2.28-1.76401,2.992-.28601.31799-.72299.68298-1.311,1.09299-.586.41-.93201.61401-1.04001.61401-.07098,0-.267.091-.58798.267-.32101.17999-.767.32001-1.33701.42899-.57001.10602-1.621.16101-3.14999.16101-1.10602,0-1.76501-.01001-1.97702-.02802-.215-.017-.39398-.07797-.53497-.18698l-.267-.215v-15.06802Z"/>
      <path class="uuid-d24aa357-17d5-41f9-bc21-e465e7d1e2fc" d="m10.58679,174.54114h3.436v-64.05399l84.655-.01001v-3.34h-.026v-18.95099l-.004-.11902c-.00702-.08099-.01602-.159-.03-.25699.01199-.08502.02298-.17102.02899-.25702l.022-.19098c.258-2.099,2.23199-3.68201,4.59-3.68201,2.35599,0,4.32901,1.58301,4.58798,3.68201l.02301.185c.004.08099.01401.16098.02899.26099-.013.08701-.02399.17502-.02899.26501l-.005,19.064h-.009v3.35001l85.186-.01001v64.991l3.43402.63v-68.961h-6.15601V41.27713l9.547-3.82098-38.595-14.345-36.73401,13.72699,9.25201,3.70999v5.80502l-29.26202-9.599-18.57599,5.996c-2.24899-14.43002-4.198-20.70401-7.41101-20.70401-.02899,0-.05698-.00098-.086,0-3.51599,0-5.52798,7.71201-8.103,25.73801l-3.85898,1.24698c-3.63501-24.28595-5.86902-34.40594-10.42603-34.40594-.03098.00098-.06198,0-.09299,0-4.905,0-7.13501,12.04794-11.36899,41.38095-.00403.03101-.00803.06201-.013.09302l-2.608.84198c-.845-5.04398-1.66101-10.63599-2.52002-16.51398C35.27579,11.77014,33.0658.00018,28.1478.00018c-.03101.00098-.06201,0-.09402,0C23.15079.00018,20.92078,12.05017,16.68579,41.38214c-1.12302,7.78299-2.18402,15.134-3.29501,21.17801-3.20999,17.44098,7.892,22.97198,13.03601,24.57098.01498,7.32901.056,19.009.056,19.009l.004.99701h-4.854v-.01999h-3.38101v.01999h-7.67398v3.35001h.00101l.008,64.05399ZM161.27478,26.71814l29.203,10.854-3.539,1.41599v68.14902h-14.789v-39.561l7.95502-6.02899-42.93402-14.086v-9.20001l-3.27499-1.31201,27.379-10.23099Zm11.64801,36.03l-4.15399,3.14902v41.23999h-57.52502l-.02899-21.673h-.35999c-1.05701-3.02798-4.086-5.16501-7.59601-5.16501-3.51199,0-6.539,2.13702-7.599,5.16501h-.388v21.673h-56.20901v-43.50299l-2.93698-1.26102,68.39398-22.065,68.40302,22.44ZM78.5058,25.48218c1.52597.72198,3.12598,8.74396,4.573,18.19498l-9.62201,3.10599c1.53299-10.90302,3.28198-20.66101,5.04901-21.30096m-22.47702-7.54102c2.547,1.69202,5.27002,18.41797,7.30499,32.10898l-15.26797,4.92801c2.10098-14.52902,5.14899-35.06799,7.96298-37.03699M16.61377,63.15213c1.12402-6.10498,2.18903-13.487,3.31702-21.302,2.103-14.56998,5.26801-36.496,8.17899-38.53397,2.901,1.927,6.03,23.34998,8.11002,37.58499.85098,5.819,1.72598,11.80899,2.61301,17.05698l-12.306,3.97101,9.15598,3.93201v14.73599c-2.12997,2.95102-4.09,3.211-5.987,3.452-.44998.05801-.91498.117-1.36697.21201-4.58502-1.14801-14.59003-5.478-11.71503-21.10901m13.79703,42.892c-.02103-1.16199-.03302-3.69098-.04703-6.59799-.01999-4.25198-.04398-9.35898-.10898-12.16299,1.466-.18799,3.40601-.48099,5.42798-1.995v21.849h-5.25198l-.01999-1.09302Z"/>
      <path class="uuid-d24aa357-17d5-41f9-bc21-e465e7d1e2fc" d="m108.276,58.13803h-10.189v15.05301h10.189v-15.05301Zm-3.11301,11.94h-3.96201v-8.82599h3.96201v8.82599Z"/>
      <path class="uuid-d24aa357-17d5-41f9-bc21-e465e7d1e2fc" d="m137.242,58.13803h-10.18799v15.05301h10.18799v-15.05301Zm-3.11301,11.94h-3.961v-8.82599h3.961v8.82599Z"/>
      <path class="uuid-d24aa357-17d5-41f9-bc21-e465e7d1e2fc" d="m79.30902,58.13803h-10.189v15.05301h10.189v-15.05301Zm-3.11301,11.94h-3.96201v-8.82599h3.96201v8.82599Z"/>
    </g>
  </g>
</svg>