<?xml version="1.0" encoding="UTF-8"?>
<svg id="uuid-79825e06-2f38-4cb6-8538-1865c67c9e1e" data-name="Livello 2" xmlns="http://www.w3.org/2000/svg" viewBox="0 0 207.14017 392.27966">
  <defs>
    <style>
      .uuid-7d752b86-00b6-4da7-a4fc-3967ebae9637 {
        fill: #fff;
      }
    </style>
  </defs>
  <g id="uuid-e53ea39f-868e-4fe1-bc2d-503edd812f78" data-name="Livello 1">
    <g>
      <g>
        <path class="uuid-7d752b86-00b6-4da7-a4fc-3967ebae9637" d="m138.18289,221.09259c.01498-.013.043-.034.091-.06.276-.09302.69199-.36801,1.26797-.83701.81302-.664.92401-.845.957-.94202.078-.17398.11603-.35098.13602-.52499.77701.409.86099.41602.935.41602.03,0,.159.01599.57401.22198.95499.457,2.43799.87701,4.40799,1.245.41202.08301,1.082.16602,1.992.24802.74301.04099,1.44901.061,2.11401.061,2.01599,0,3.67899-.18802,4.96698-.56601.37802-.138.565-.168.65402-.168.12598,0,.36398-.02701,1.01398-.26501l2.29501-.995c.19598-.116.54001-.29898,1.026-.54099.72101-.362.84799-.478.91-.561.07498-.10001.13998-.186.13998-9.14999v-8.845l.29001-.82001c.259-.73099.35501-.95099.38699-1.01801.078-.151.10501-.39798-.16101-.65198l-.25098-.41901h-15.46402l-.25098.418c-.15002.24399-.22601.67999-.24902,1.37-.022.672.03302,1.164.16901,1.50198.15601.39203.297.58701.46899.65201.18701.07602.43301,0,.83502-.25198.379-.19101.94998-.327,1.69699-.405.77301-.082,2.35098-.10001,4.69299-.06,3.51199,0,4.22501.04999,4.32901.07498.14301.05402.16599.11801.173.13602.03998.15698.10699,1.33798.10699,7.48999,0,6.263-.069,7.466-.112,7.634-.034.12399-.142.27798-.31.44598-.20502.20401-.28101.237-.26501.23801-.09299,0-.23398.02899-.72198.33401-.58902.315-1.638.61697-3.121.89499-1.64502.323-3.14999.42099-4.47501.30399-1.64899-.12097-2.84601-.30399-3.565-.54199-.42599-.12799-.81299-.22998-1.18201-.31-.34799-.077-.69998-.20599-1.04999-.38101-.371-.18597-.79102-.36398-1.23102-.52399-1.63699-.75601-2.80899-1.50198-3.48798-2.22101-.22302-.21899-.37-.323-.492-.30698-.004-.00101-.05301-.02802-.15302-.17801-.15598-.23599-.28-.349-.41098-.37399-.047-.03201-.207-.155-.66-.61102-.45001-.45099-.58002-.60199-.61801-.651-.035-.11298-.14499-.21399-.32498-.35098-.11002-.082-.14502-.129-.15201-.129v.00101c-.00299-.15601-.11099-.31702-.35602-.535-.14899-.133-.18997-.198-.19699-.198-.00198-.14001-.086-.31201-.29001-.59003-.14999-.20898-.254-.38599-.306-.52798-.03497-.09-.116-.311-.29398-.37701-.05402-.07599-.20901-.323-.603-1.112-.68301-1.444-1.13-2.70398-1.32703-3.72998-.04199-.33701-.12698-.767-.25098-1.28201-.11902-.49698-.19901-1.172-.23901-2.009-.04099-.83499.04102-1.80499.24301-2.89301.36099-2.16998.888-3.87698,1.55298-5.05099.30801-.43298.35001-.60498.349-.69901.00403-.02399.048-.172.453-.77899.32202-.483.543-.80798.66602-.96899.11798-.15799.23499-.29401.34698-.40399.147-.146.229-.29501.24902-.45801.10898-.061.28-.23001.65298-.694.32999-.405.45801-.52798.50201-.564.112-.026.26898-.14301.70898-.582.35001-.349.64099-.60199.88699-.772.284-.19601.461-.32999.55301-.423.02899-.03.14499-.12601.56201-.35999.397-.22202.59198-.388.621-.55402.15198,0,.302-.08099.435-.22101.08099-.05499.29498-.17599.83499-.44598.46399-.23099.97299-.45502,1.51401-.66699.57098-.224,1.06198-.418,1.45499-.577,1.685-.52002,3.60001-.78601,5.69101-.78601,1.043,0,2.255.134,3.604.396,1.341.26001,2.34198.552,2.97098.867.61102.30798.78.33701.81403.32999.01999.005.14297.048.64297.39902.64502.379,1.08502.87299,1.31,1.474.08603.224.21503.37198.388.44.17902.06799.38303.047.59302-.06.52399-.20901.72598-1.043.63599-2.62402-.064-.901-.22198-1.93298-.84598-1.93298-.065,0-.151-.04501-.24802-.13101-.172-.142-.495-.29498-.99399-.46899-.59702-.20599-.78702-.30801-.83902-.34299-.47699-.30502-1.20499-.55502-2.24197-.77103-.306-.03799-.63101-.11398-1.00302-.237-.83099-.25-2.013-.418-3.51801-.49899-1.50098-.082-2.76599-.06299-3.75.061l-1.888.246c-.55399.04099-1.39499.25601-2.57098.65399-1.173.39902-2.06601.755-2.72699,1.08502l-.74301.37399c-.45401.255-.51401.315-.534.33701-.00702.004-.077.05698-.44.23898-.315.15799-.53.30801-.65601.457-.065.07901-.103.09799-.099.10001-.129.00101-.267.052-.47.19101-.15201.15399-.556.47498-1.19.953-.138.09399-.29401.22598-.46298.39499-.11401.11499-.17203.16299-.198.18201-.10303.022-.26602.16098-1.12201,1.047-.431.44501-.983,1.02298-1.133,1.22598-.09802.09802-.341.41602-.728.944-.38303.52402-.621.83301-.70801.92001-.14401.14099-.21899.29498-.228.50101-.07401.07599-.21301.27899-.60501.92398-.556.91101-.556,1.021-.55499,1.095-.00299.02301-.02802.133-.224.58502-.73199,1.633-.819,2.09598-.819,2.30298,0,.159-.05002.32602-.155.50101-.26401.48499-.474,1.65799-.64001,3.58801-.207,2.625-.03799,4.86099.49802,6.64499.78101,2.504,1.05298,3.08398,1.17999,3.28299.15399.31201.159.405.159.41501,0,.164.09702.36099.32199.66199.19601.26202.224.35202.228.35202v-.00101c0,.104,0,.26199.87302,1.483.547.772,1.05499,1.45801,1.51801,2.04599.40298.44299.86798.91901,1.41901,1.45102.53598.51599,1.069.98398,1.57999,1.392.48099.38498.88599.681,1.20401.884-.14401.09-.284.194-.41602.32898-.086.112-.133.14502-.12601.14902-.12997.00299-.26999.05499-.42999.16299l-.06601.065c-.02197.03299-.13599.168-.69397.513-.42401.263-.85001.496-1.26501.69199-.57199.272-.71201.28201-.72501.28201-.10498,0-.272.04498-.76999.26801-.35101.15698-.94699.33798-1.76901.53699-.81.19901-1.95801.29999-3.40799.29999-1.444,0-2.526-.10098-3.215-.29797-.69901-.198-1.23502-.38-1.59399-.54001-.466-.207-.66901-.25601-.81702-.26801-.073-.11301-.28601-.27399-.905-.63901-.53201-.31598-1.20599-.88-2.00601-1.67999-1.70297-1.70001-2.02197-2.11301-2.07999-2.21201-.022-.17398-.14999-.323-.25-.42599-.07599-.07401-.216-.245-.453-.62698-.37-.61603-.64499-1.03601-.81699-1.25101-.16501-.20801-.19202-.285-.19302-.285,0-.08301,0-.18802-.58298-1.16101-.43402-.71799-.51102-.89099-.52002-.89099v.00101c0-.09201-.02698-.20502-.34598-.68301-.22803-.33899-.26602-.414-.267-.39798-.00302-.23203-.11002-.65302-.89001-1.82703-.20499-.35599-.21201-.45999-.21201-.46298,0-.159-.10098-.36301-.32401-.66299-.16199-.21503-.21698-.30402-.23398-.33401-.01202-.077-.07001-.20099-.336-.63-.20502-.32498-.26102-.43698-.272-.43698v.00299c-.00302-.10599-.05701-.20401-.35001-.55899-.436-.61002-.21399-.94.01999-1.155.26901-.22302.354-.25101.34201-.25201.272,0,.79999-.13101,2.21799-1.26999.42801-.29901.86002-.68002,1.289-1.13101.43301-.453.81-.88101,1.117-1.27301.405-.50699.49402-.72998.51102-.89899.12-.073.245-.27399.47198-.77399,1.242-2.73801,1.577-5.203.98901-7.33401l-.366-1.22c-.33301-1.25299-1.039-2.53101-2.09702-3.797-1.05899-1.263-2.22699-2.242-3.474-2.90701-.94901-.496-1.957-.87399-2.995-1.125l-1.34201-.31299h-7.784c-3.91901,0-6.37799.021-7.30399.06299-1.064.048-1.54901.19702-1.68301.52802-.06198.18799-.00299.46799.19299.897.27301.66998.422,1.621.44,2.82498.02002,1.22601.02902,5.98801.02902,14.55502,0,8.16-.009,12.82999-.02902,14.27698-.02399,1.858-.194,2.36502-.30298,2.51602-.39603.64398-.41901,1.11798-.086,1.39297.18799.18701.63699.423,2.31497.37302,1.35101-.04501,2.005-.26999,2.11401-.711.048-.14401.043-.37601-.319-1.099l-.34299-.686v-11.121l.59399-.54099,10.86301-.06201.439.327c.58099.38901,1.11099,1.00201,1.57498,1.81201.16702.336.29202.565.41101.73499.08099.08002.358.49899,1.30099,2.37701.245.57999.51599,1.125.80701,1.621.28299.48599.64301,1.14398,1.06699,1.952.58701,1.116.754,1.36301.827,1.44998.08502.104.19702.28201.34201.543.151.285.27301.47302.37399.57202.039.04099.164.19901.55301.793.306.47098.569.83899.76001,1.06198.10999.194.42999.62402,1.905,2.103,1.37399,1.37402,1.728,1.63202,1.88498,1.681,1.00101.69,1.035.68903,1.08102.67902.01099.004.07898.03299.34998.21301.30002.19897.49402.284.65201.284.01901,0,.07901.02399.20599.14297.64102.431,1.87201.84201,3.75803,1.26001.81998.177,1.70999.267,2.66299.267.832,0,1.711-.06799,2.63098-.20398.77301-.121,1.405-.21103,1.89301-.272.52899-.06702.92599-.17801,1.21402-.33401.25299-.13501.526-.23999.80798-.315.32199-.08701.80701-.28101,1.48001-.59799.582-.27399,1.09-.50101,1.431-.64001.35699-.142.55798-.25299.599-.42398m-27.49899-21.04602c-.07901.00601-.22803.05002-.82703.29202-.43198.17499-.96799.30399-1.58298.38098-.61401.04102-2.13501.07101-4.52002.091-2.40298.021-4.29099.01001-5.63098-.03l-1.92902-.05798-.47998-.479v-15.74402l.414-.41299h6.09399c5.41,0,6.46899.07202,6.62198.11401,1.60202.41699,2.004.642,2.10202.73801.146.146.38599.28.72501.40698.34399.19101.90298.672,1.66397,1.431,1.009,1.009,1.091,1.26901,1.095,1.306,0,.11401.06403.22.27103.45801.07098.07901.23099.35098.53799,1.271.23898.70499.35599,1.59601.35599,2.65201,0,1.04898-.09698,1.84799-.29001,2.37-.32397.85699-.32397,1.00198-.32397,1.064,0,.047-.04602.103-.08301.13901-.117.117-.25601.319-.44601.65298-.15298.345-.59299.90002-1.302,1.646-.552.55402-1.10098.98401-1.633,1.28-.61899.34402-.789.41602-.83298.431"/>
        <path class="uuid-7d752b86-00b6-4da7-a4fc-3967ebae9637" d="m54.8118,129.90918c.185-.569.323-.94702.41898-1.138.09-.18802.04401-.35501-.14099-.49802-.37299-.42499-1.32501-.543-2.858-.354l-.83801.07101-2.23099,2.20398c-1.48801,1.423-2.604,2.561-3.34698,3.414-.74503.85501-1.20901,1.37701-1.39401,1.56403-.32599.33298-.72198.83099-1.186,1.495-.13901.237-.35999.521-.66199.853-.30301.33398-.57101.689-.80099,1.06699-.23401.38101-.38501.58102-.45502.604-.069.02499-.22101.25101-.453.67599-.27701.38-.49899.617-.66199.71301-.16202.095-.42999.11899-.80099.07001-1.90701-.427-3.51102-.591-4.811-.49802-2.14001.19101-3.836.535-5.09,1.03201-1.25702.49799-2.44302,1.31601-3.55701,2.45398-1.255,1.23401-1.88199,2.04102-1.88199,2.41803,0,.04898-.07001.168-.21002.35599-.23398.285-.535.98401-.905,2.099-.37399,1.116-.60599,2.04999-.69901,2.81-.27798,2.32199-.164,4.19501.349,5.617.18503.47699.28.80899.28.99701,0,.18799.09003.487.27802.888.185.40399.27798.63098.27798.67599,0,.04898.164.332.48901.85498.233.427.77899,1.09,1.638,1.992.86099.89999,1.36099,1.349,1.49799,1.349.14203,0,.21002.04901.21002.14401s.418.345,1.255.746c.83698.405,1.46399.65298,1.88199.74799.65201.189,1.035.31,1.15201.35602.116.047.19699.758.24298,2.133.09302,2.039.43002,3.79401,1.013,5.263.58002,1.47098,1.22,2.60999,1.918,3.414.18301.19098.42801.42798.73102.71298.30099.28302.60199.52002.90698.71002.30002.18799.49802.284.591.284.142,0,.36002.07098.66202.215.302.142.80298.24799,1.5.319.698.07098,1.23099.08301,1.60397.035.27902-.047.80103-.21201,1.56802-.49802.767-.28299,1.17499-.47299,1.22198-.569.04602-.09598.11401-.14099.20901-.14099.09299,0,.371-.24899.836-.74802.46399-.49597.745-.86298.83701-1.10098.09299-.189.211-.45001.349-.78299.23199-.474.40698-1.24503.52197-2.31201.117-1.06702.082-1.76599-.103-2.09799-.233-.47302-.582-.77002-1.04599-.888-.466-.11801-.86301-.01102-1.186.319-.465.37799-.72101,1.01999-.767,1.92099-.23401,2.418-1.37201,3.62799-3.418,3.62799-.836,0-1.52301-.17999-2.056-.534-.534-.35498-1.01001-.98398-1.42899-1.88599-.74402-1.46899-1.16202-3.224-1.255-5.263-.047-.995-.034-1.58701.035-1.77802.06998-.19.35999-.30798.87-.35498.83701-.095,1.82498-.32202,2.965-.67502,1.13699-.358,1.892-.677,2.26501-.961.23199-.23801.39499-.358.48798-.358.09302,0,.254-.06998.49002-.21201.23099-.237.44-.42798.62698-.569.27899-.18799.46399-.332.55801-.42798.18399-.14001.47498-.47302.871-.995.39398-.52103.59198-.80502.59198-.85303,0-.09497.02402-.142.07101-.142.09198-.047.22998-.21399.418-.49799.18399-.285.27701-.45001.27701-.49899,0-.09399.073-.258.211-.49701.23199-.38.509-1.091.836-2.13199.32599-1.04501.48798-1.79102.48798-2.241,0-.453-.18597-.83102-.55798-1.138-.371-.311-.81299-.41702-1.32401-.323-.27899.04898-.547.22699-.802.53497-.25598.31-.384.604-.384.89001,0,.14099-.116.53299-.349,1.17401-.233.638-.44101,1.12598-.62601,1.45798-.23398.37802-.34998.61502-.34998.71002,0,.142-.25601.52197-.767,1.138-.51102.616-.90601,1.04498-1.18503,1.28098-.37299.284-.56998.461-.59399.53201-.02298.07098-.06799.10699-.138.10699-.07098,0-.22098.08301-.45398.25-.23401.16501-.73102.39099-1.49802.67502-.76801.28497-1.431.42798-1.98999.42798h-.90302l.138-.71201c.14102-1.185.42001-2.56097.83801-4.12598.23099-.66202.34799-1.06802.34799-1.20801,0-.14301.069-.42999.20999-.85501.13901-.427.25403-.806.34601-1.138.14099-.61499.466-1.49298.97702-2.63.23199-.52399.49899-1.12799.80298-1.81497.30002-.68701.51102-1.10303.62701-1.24503.11499-.14099.17398-.285.17398-.42798,0-.14102.035-.21201.10501-.21201s.19699-.21402.383-.64001c.185-.42599.314-.66299.384-.71198.069-.04602.20901-.28302.418-.71201.20901-.42599.39401-.71002.55801-.853.16199-.142.534-.117,1.116.07098.57999.19.871.31.871.35602,0,.04797.198.19199.59299.42599.39499.23898.63901.418.73199.535.09302.11798.19901.177.315.177.11502,0,.23102.10699.349.31998.11502.21301.21802.32202.31302.32202.09097,0,.57999.45999,1.46298,1.38397.88202.927,1.34799,1.46002,1.39502,1.60001.04599.14401.11499.241.20898.28702.09299.047.24399.28598.453.711.20898.42798.349.64099.418.64099.07101,0,.10501.05899.10501.17599,0,.12.12799.35699.384.71201.25497.35599.38397.582.38397.67599s.09201.332.27802.71301c.186.47198.302,1.16.34799,2.061.047.901.07202,2.892.07202,5.97498,0,2.703-.02502,4.41-.07202,5.121-.04599.71201-.185,1.40002-.41699,2.06302-.18701.522-.25601.83099-.20901.92499.13901.332.99802.452,2.57901.35602.88501,0,1.466-.06003,1.74402-.17902.28-.11899.418-.29599.418-.53299s-.035-.35501-.10303-.35501c-.07098,0-.19897-.30798-.38397-.92599l-.28003-.853v-36.98801l.28003-.92499Zm-16.71301,14.44c-.41699.569-1.04599,1.82599-1.88101,3.76999-.97598,2.181-1.604,3.65298-1.88199,4.41-.09299.33301-.211.664-.349.995-.55801,1.47101-.83899,2.39499-.83899,2.776,0,.13998-.08102.45099-.24301.92499-.16299.47302-.29102,1.01801-.38199,1.63501-.27902,1.94501-.48901,3.035-.62802,3.271-.047.14301-.117.215-.20898.215-.095,0-.33801-.08301-.733-.25-.396-.16599-.79001-.34399-1.185-.53299-.397-.19-.664-.33002-.802-.427-.79102-.569-1.535-1.35199-2.23102-2.34702-1.349-1.99197-1.767-4.45798-1.25497-7.39899.13998-.75601.39398-1.58801.767-2.48901.371-.89999.67398-1.46799.90598-1.70697.18503-.14401.27802-.24902.27802-.319,0-.07101.24399-.36801.733-.89001.487-.51999.755-.78201.802-.78201.04498,0,.138-.047.27798-.14297.13901-.142.48901-.35501,1.04501-.638.55899-.285.90698-.42801,1.048-.42801.13998,0,.44098-.09601.90698-.285.46301-.18701,1.36902-.285,2.71902-.285,1.15997,0,1.974.02499,2.439.07199.79099.09402,1.021.37903.69699.85303m13.22601,3.41397l-.27902.07101c-.233.04901-.41901-.05899-.55701-.32101-.14099-.25897-.63998-.82797-1.5-1.70499-.86099-.87799-1.349-1.31699-1.46597-1.31699-.11603,0-.17401-.047-.17401-.142s-.38199-.39001-1.14801-.888c-.767-.49701-1.38599-.86502-1.84799-1.10303-.41901-.23798-.66199-.42798-.733-.569-.069-.14297,0-.31998.20999-.53299.20801-.21298.314-.367.314-.46298,0-.18903.51001-.85501,1.53302-1.992.27701-.33002.41901-.53302.41901-.604,0-.073.21799-.34302.66098-.81799.44101-.47501.87201-.94901,1.29001-1.423.698-.853,1.51099-1.73001,2.44199-2.63101.32401-.332.54501-.45099.66202-.35599.11398.095.17401,2.58499.17401,7.46799v7.32599Z"/>
        <path class="uuid-7d752b86-00b6-4da7-a4fc-3967ebae9637" d="m192.6712,311.19226c-1.61102,1.714-8.07202,8.09901-20.37003,14.41301-13.21799,6.787-36.078,14.87599-69.909,14.87599-60.54999,0-85.33298-27.642-88.40997-31.38899v-70.51799l-3.42401-.47v72.14099l.32901.452c.98798,1.355,25.00098,33.21001,91.50497,33.21001,66.43201,0,92.23401-29.687,93.30002-30.951l.40198-.47701v-86.35799l-3.42297.89301v84.17798Z"/>
        <path class="uuid-7d752b86-00b6-4da7-a4fc-3967ebae9637" d="m207.05615,198.79129c-.11401-1.68301-.20203-2.09702-.25403-2.25-.41895-1.577-.48199-1.98199-.48199-2.08499,0-.11902-.05396-.36801-.453-1.38501-.328-.703-.52698-1.155-.59998-1.38602-.08801-.25998-.27399-.63397-.56702-1.142-.24597-.44598-.427-.789-.54297-1.02197-.13202-.302-.34698-.65601-.64001-1.05701-.27899-.37601-.47998-.668-.61102-.88699-.21497-.29703-.81995-.96503-1.79797-1.98602-1.367-1.42899-1.46399-1.422-1.55103-1.41l-.047-.06598c-.03497-.034-.138-.13602-.758-.60101-.67096-.504-.729-.51099-.78101-.50299-.00195-.00101-.04095-.013-.11499-.06-.229-.22501-.72498-.53101-1.56201-.96201-.828-.42099-1.508-.72601-2.07596-.92902-1.078-.41299-2.146-.70599-3.17499-.87-2.75302-.40198-4.52701-.36298-5.48001-.151-.431.09802-.806.14902-1.11002.14902-.35599,0-.78998.08398-1.327.255-.52899.168-.87799.26199-1.103.297-.26801.04599-.539.13699-.80298.26801-.23203.11697-.66.29999-1.276.547-.65903.28998-1.35101.66599-2.04703,1.11697-.20999.12402-.37399.229-.5.31201-.25497.17001-.65598.48502-1.17297.92401-.319.228-.40402.26199-.38303.263-.14697,0-.28699.10001-.543.383-.16599.18698-.47299.48401-.96399.93399-.65399.59799-.76199.74802-.77899.862-.022.03601-.103.14401-.36401.40701-1.10001,1.14798-1.323,1.54599-1.35098,1.76599-.01801.03101-.07202.112-.228.29999-.23401.29102-.328.46103-.32602.59302,0,.00198-.021.08899-.22998.36301-.22101.298-.32202.50198-.32202.66098,0,.008-.00299.07202-.12399.215-.133.15002-.241.29202-.34601.45502-.694,1.517-.694,1.664-.694,1.75101,0,.03-.01898.16599-.25598.668-.26102.56-.298.75098-.298.86398,0,.05701-.02301.245-.17099.84799-.29202.875-.49103,2.246-.59302,4.07501-.103,1.83002-.07199,3.21899.09399,4.125.37701,2.25699.70401,3.642,1.009,4.246.20599.36499.215.478.215.49799,0,.07901,0,.24301.51102,1.29703.32001.65799.66199,1.31299,1.01999,1.94299.55002.97699.66501,1.03598.737,1.07999,0,.16901.108.36801.35901.67102,1.58301,1.91299,2.65799,3.069,3.30099,3.54099.23001.15201.50201.36499.83801.65701.45099.37198.832.64798,1.13599.82098.284.16299.68799.40601,1.21899.73199.785.48203.936.52402,1.03201.52402,0-.00201.07898.00198.51099.21899,1.246.66501,3.11002,1.147,5.52499,1.43298.49301.082.89502.125,1.17801.125h.00702c.14398.01202.31198.01703.50497.01703.48502,0,1.13202-.03702,1.92603-.11002,1.12698-.103,1.88397-.216,2.28598-.33801.715-.12698,1.17102-.23099,1.34302-.306.31699-.04599.63498-.15997.94098-.336.35699-.20297.45801-.21399.46701-.215.14801,0,.31897-.061.51898-.186.10699-.06497.32202-.17297.75598-.31799.34204-.12799.81604-.36398,1.44202-.72.64001-.35999,1.03101-.62698,1.19598-.815.11603-.13498.17303-.16299.16504-.16599.13696,0,.35199-.01401,1.99597-1.59702,1.06598-1.02399,1.81799-1.83899,2.21899-2.40298.33301-.37399.539-.61301.62-.716.12-.14499.17603-.27301.172-.35501.00305-.008.03003-.08698.23102-.35599.27002-.354.32397-.492.32001-.56799.00299-.00702.02698-.07901.20502-.32202.17499-.23999.39398-.66599.66998-1.302.31201-.724.41699-.86099.41199-.86499l.06-.03.03302-.056c.21997-.35199.58997-1.45401,1.13-3.37.534-1.901.70197-4.258.49799-7.004m-3.40497,4.75598c-.24902,1.29501-.38306,1.81302-.45105,2.02002-.104.31198-.18799.621-.255.94901-.05597.285-.164.60898-.31897.961-.48401,1.086-.86798,1.83499-1.14502,2.23199-.164.242-.40601.64801-.74298,1.23599-.23199.388-.46802.70401-.70099.936-.29199.29401-.39001.418-.42102.50699-.05902.07101-.27197.29901-.98401.992-.84998.82401-1.19397,1.13-1.32898,1.23901-.513.396-1.13599.81299-1.84802,1.241-.90298.54001-1.10696.60599-1.13498.612-.10898,0-.27798.04901-.77698.29999-.36002.17801-.72601.31601-1.091.41101-.56302.14899-.73401.24799-.82602.319-.00998.009-.129.08701-.73898.16501-.47202.06097-1.09601.15598-1.871.27798-.923.12-1.625.16501-2.06.12601-.17102-.04199-.672-.12601-1.492-.24802-1.44202-.202-3.12799-.77197-5.03-1.702-.47299-.19699-.97101-.487-1.48401-.862-.60699-.44199-.82999-.65601-.91199-.754-.108-.26999-.30099-.30298-.37701-.30298h-.00198c-.00201,0-.065-.01501-.22501-.15503l-.66501-.57498c-.14999-.14902-.38901-.41501-.75101-.84201-.34799-.40601-.67499-.79498-.97998-1.16199-.30902-.371-.49402-.604-.552-.69-.12302-.24899-.298-.547-.534-.91202-.211-.32599-.34702-.58398-.401-.76797-.04102-.13501-.12201-.397-.31799-.46002-.02402-.034-.07303-.11697-.15201-.29898-.664-1.55002-.715-1.86902-.715-1.931,0-.09802-.021-.29001-.20102-.82101-.358-.91501-.59998-2.26401-.72098-4.008-.12003-1.733-.06-3.03601.17798-3.879.08701-.345.16101-.73401.22-1.15701.05701-.39899.14102-.702.25101-.90298.134-.246.224-.52899.26801-.83499.15601-.82202.72299-2.05502,1.69-3.66702.36398-.647.64899-1.11398.82098-1.35898.211-.211.40701-.45001.573-.698.11301-.15002.353-.41.71301-.77301.362-.36099.75-.73001,1.15399-1.095.40701-.36499.733-.64801.974-.85101.44101-.35999.862-.651,1.25302-.86499.42899-.23599.68597-.38599.83899-.48999.37601-.34,1.27399-.73502,2.66901-1.17401,1.07898-.32098,2.19998-.54599,3.328-.66699.388-.03799.86899-.04901,1.43698-.03101.578.02301,1.18201.064,1.79401.12302.61099.05899,1.099.14697,1.47501.26999.89099.20401,1.88699.55099,2.95999,1.02798,1.077.48102,1.88699.92502,2.39798,1.315.26001.21802.47498.36902.61499.431.138.112.74603.68802,2.85999,2.80301.18903.18799.23102.267.23901.267v-.00198c.00201.17297.09399.31699.24805.388.04895.03.26294.228,1.01294,1.50998.11206.19.31201.56601.60303,1.14502.31903.64499.39502.81699.40399.81699,0,.10599.047.26901.26898.71799.19904.40002.22003.55301.22003.60101,0,.112.02698.327.25897.89999.80103,2.409.96204,5.133.48206,8.09799"/>
        <path class="uuid-7d752b86-00b6-4da7-a4fc-3967ebae9637" d="m42.62851,288.73865l13.89899-.077.61801.464c.772.515,1.46799,1.31099,2.08398,2.39299.20599.41301.36002.69501.46402.849.20499.207.772,1.23601,1.698,3.088.30798.722.64301,1.39,1.005,2.00801.35898.618.81097,1.44099,1.34998,2.47.54001,1.03299.875,1.62199,1.005,1.77699.12799.15401.28201.40001.46402.73401.17899.33499.31998.55299.42297.655.104.10399.34702.452.73401,1.04399.38699.593.70801,1.04201.96701,1.35001.20398.36.98898,1.224,2.35498,2.58699,1.362,1.36601,2.121,2.04601,2.276,2.04601.823.56599,1.26202.849,1.311.849.052,0,.23401.105.54199.311.31003.205.52802.30699.65601.30699.12802,0,.271.07701.42502.23201.772.51599,2.31799,1.032,4.633,1.543,1.90399.41299,4.09198.44,6.564.07899.97699-.155,1.77499-.27,2.39401-.34799.616-.07701,1.09198-.20401,1.427-.386.33499-.179.69598-.32001,1.08099-.425.38699-.103.991-.34801,1.815-.73401.82199-.38499,1.42798-.655,1.81598-.81.38602-.15399.578-.271.578-.347,0-.077.103-.168.30801-.271.31-.103.81299-.437,1.50699-1.002.69501-.567,1.06702-.92799,1.11902-1.082.25598-.56799.23199-1.133-.07703-1.698-.258-.51601-.694-.785-1.31299-.814-.616-.024-1.15601.19499-1.621.65799-.155.20601-.28299.31-.38501.31-.10498,0-.233.05101-.38699.153-.104.15501-.42499.401-.966.73401-.53998.33701-1.07999.632-1.62.88899-.54199.25601-.88998.38501-1.04401.38501-.10199,0-.38498.104-.849.308-.46198.207-1.224.439-2.27798.69699-1.05499.257-2.509.38501-4.36099.38501-1.854,0-3.23203-.12801-4.13202-.38501-.901-.258-1.582-.48999-2.047-.69699-.46298-.20399-.772-.308-.92499-.308-.15701,0-.233-.03801-.233-.116,0-.07701-.34601-.32001-1.04102-.733-.69598-.41101-1.55899-1.132-2.58701-2.162-1.80298-1.80099-2.70398-2.78-2.70398-2.93401,0-.103-.077-.231-.23001-.38699-.15601-.153-.36301-.435-.61899-.847-.46201-.774-.79901-1.28801-1.00302-1.547-.20798-.255-.31-.43501-.31-.54001,0-.10199-.23099-.53999-.69498-1.312-.461-.77299-.694-1.19701-.694-1.27499,0-.076-.129-.30801-.38702-.69301-.25699-.388-.38699-.605-.38699-.658,0-.35899-.35901-1.08099-1.07999-2.16299-.207-.35899-.30701-.603-.30701-.73199,0-.12801-.11801-.347-.349-.657-.23199-.308-.34799-.487-.34799-.54001,0-.05-.12802-.282-.384-.69499-.258-.41101-.38699-.64301-.38699-.69501,0-.05-.12903-.23199-.38702-.541-.51498-.718-.48999-1.336.07901-1.853.30801-.255.51199-.38499.617-.38499.46201,0,1.33701-.51401,2.625-1.54601.51498-.35699,1.04199-.82201,1.582-1.38901.54199-.56599,1.005-1.09299,1.39099-1.58099.38602-.492.57901-.81198.57901-.966,0-.155.03799-.23199.11499-.23199.078,0,.245-.28198.50201-.849,1.54498-3.39798,1.95599-6.41,1.23499-9.035-.15201-.51398-.30798-1.02798-.46399-1.54398-.41202-1.54501-1.27301-3.10101-2.58401-4.67203-1.314-1.56799-2.742-2.76599-4.28699-3.59198-1.18399-.617-2.42001-1.08002-3.70599-1.38901l-1.621-.38501h-9.80801c-4.99301,0-8.05701.026-9.18698.07602-1.134.05298-1.75.20599-1.854.46399-.05002.15399.02499.46301.23398.927.358.87601.552,2.09698.57602,3.66699.026,1.57101.039,7.68402.039,18.338,0,10.14301-.013,10.78799-.039,12.64101-.02402,1.853-.16602,2.961-.423,3.321-.414.668-.46201,1.131-.15302,1.38899.306.308,1.20801.438,2.70102.38501,1.492-.05,2.28799-.28101,2.39301-.694.05099-.15401-.07703-.54001-.38702-1.158l-.46198-.927v-8.854l.92599-.851Zm-.92599-24.479l.30899-.30798.38599-.38501h7.798c5.25101,0,8.05499.05002,8.418.15302,1.59399.414,2.52002.74698,2.77802,1.00299.15698.15701.43799.31.84998.465.46402.259,1.18301.87601,2.16302,1.853.97699.979,1.466,1.59601,1.466,1.853,0,.05301.09.18201.271.38602.17899.20801.42398.77301.73199,1.70099.31.92599.466,2.07202.466,3.43402,0,1.36298-.13,2.39499-.38699,3.08798-.25803.69601-.38702,1.10901-.38702,1.23599,0,.12802-.065.25702-.19299.38602-.129.129-.297.37698-.50198.733-.20602.465-.77002,1.185-1.69901,2.16299-.72.71999-1.427,1.27399-2.12201,1.65999-.69699.386-1.082.57899-1.159.57899-.078,0-.39999.11601-.965.347-.569.233-1.26199.40001-2.08499.50201-.77301.05399-2.677.09099-5.716.116-3.035.02699-5.40201.013-7.10303-.037l-2.547-.07899-.77197-.772v-20.07701Z"/>
        <path class="uuid-7d752b86-00b6-4da7-a4fc-3967ebae9637" d="m155.28421,271.11536c.47897-.04797,2.03198-.07498,4.655-.07498h5.29898l.909.37799c.60501.254,1.03302.431,1.28601.53101.202.10101.38998.07401.569-.07599.17599-.151.30099-.41501.37799-.79401.07501-.379.13901-.871.18802-1.47699,0-.60602-.02502-.96902-.07401-1.09702-.052-.12701-.17801-.29001-.38-.49399l-.45401-.37802h-8.85599c-4.44.05099-7.039.11401-7.79599.189-.75803.07703-1.13602.29102-1.13602.64502,0,.25198.07599.453.228.604.14999.15399.302.64499.45401,1.47699.151.83099.20099,4.90799.151,12.224,0,7.97499-.203,12.23799-.60501,12.79199-.30301.45399-.30301.80901,0,1.06.099.104.45401.17801,1.05801.228.60699.05101,3.785.07401,9.539.07401l8.629-.07401.30298-.379c.20001-.20099.30301-.756.30301-1.664-.05301-1.46399-.354-2.196-.909-2.196-.25299,0-.379.039-.379.114,0,.07301-.17599.188-.53.34001-.302.09999-.59399.189-.87.26599-.27802.075-.69501.125-1.25.15001-.55499.02699-1.26102.039-2.11902.039h-3.40598c-3.73602-.05101-5.72601-.15201-5.979-.30301l-.37802-.22699v-5.67801c0-3.028.03601-4.845.11401-5.44901.07401-.60599.26401-.95898.56699-1.06.60501-.151,1.48801.02701,2.64902.52902,1.61398.65698,3.15201.936,4.617.832,2.521-.10101,4.08798-.57901,4.69299-1.43701.302-.50299.40298-1.009.302-1.51401-.10101-.504-.41602-.87198-.94501-1.09799s-1.073-.18799-1.629.11401c-.60501.35397-1.526.51797-2.76199.49197-1.23801-.02499-2.18301-.21399-2.83801-.56699-.35498-.203-.60498-.30399-.758-.30399-.14899,0-.41501-.061-.79401-.18802-.379-.125-.97299-.228-1.77899-.30399-.806-.07401-1.24899-.17603-1.323-.30301-.078-.12399-.11401-1.06-.11401-2.79999,0-1.742.07501-2.71201.22501-2.91302.15302-.103.46701-.177.94702-.229"/>
        <path class="uuid-7d752b86-00b6-4da7-a4fc-3967ebae9637" d="m121.1568,248.37097l-.21103.80002c-.14297.56601-.24799.888-.31998.95999-.25101.24802-.16299.47702.26599.69101.211.10599.97699.159,2.29001.159.923,0,2.069.03799,3.43698.10699,1.36502.07001,2.086.125,2.15701.159.07199.10602.58899.099,1.54498-.02499.95901-.12399,1.70602-.27499,2.23901-.452.35199-.108.78699-.29501,1.30301-.56.51498-.26599.84198-.47299.98801-.61301.53098-.534.49298-1.10001-.10901-1.70499-.14301-.17801-.38101-.26602-.71802-.26602-.33698,0-.62997.08801-.88098.26602-.211.142-.33701.211-.371.211-.035,0-.22202.082-.55899.241-.33902.16098-.92401.293-1.759.39899-.836.10699-1.724.117-2.66501.02899-.939-.09097-1.81-.15198-2.61002-.18698-.797-.03702-1.26797-.125-1.409-.26801l-.16199-.21399-.05402-6.60501c0-4.22501.02902-6.89099.08102-7.991.05399-1.10199.224-1.84702.50699-2.23801.10501-.17499.12299-.31799.052-.42398-.14099-.285-.79901-.41-1.96899-.37302-.89102,0-1.397.07101-1.52002.211-.12598.14301-.14297.33002-.05399.561.08798.23099.20599.58499.34698,1.065.142.478.194,3.27499.15903,8.39099v7.67099Z"/>
        <path class="uuid-7d752b86-00b6-4da7-a4fc-3967ebae9637" d="m118.92542,288.52415c.09998,1.567.37799,2.77701.83099,3.63501.202.405.30298.657.30298.756,0,.151.367.60699,1.09802,1.36301.73199.75699,1.22299,1.21199,1.47598,1.36299,1.46301.808,2.34702,1.211,2.64999,1.211.099,0,.35303.07401.755.228.40402.15001,1.276.214,2.61301.18901,1.33701-.02501,2.33301-.114,2.98999-.26601,2.017-.455,3.55701-1.53799,4.61603-3.25499.556-.806.91998-1.82701,1.09998-3.06401.17401-1.237.11102-2.33299-.19-3.29399-.15198-.45401-.392-.959-.71899-1.51401-.32999-.556-.59399-.85699-.79599-.909-.10101-.05-.151-.12401-.151-.22501,0-.15199-.21399-.40399-.64401-.75699-.42798-.35301-.97098-.746-1.62598-1.173-.65601-.42801-1.31302-.82098-1.96802-1.17398-.80899-.40402-1.28699-.64301-1.44-.72202-.151-.07401-.604-.29901-1.36099-.67801-.75601-.379-1.20001-.63098-1.32401-.759-.12799-.125-.23999-.18799-.341-.18799-.103,0-.39099-.202-.87198-.604-.479-.40601-.845-.759-1.095-1.061-.91-1.211-1.13602-2.548-.68301-4.013.30399-1.05899,1.17499-1.82599,2.612-2.30798,1.439-.479,2.737-.44202,3.89801.11398.504.202.79398.30402.871.30402.07397,0,.427.22699,1.06.67899.63.45502.98398.68201,1.05698.68201.07703,0,.27802.26401.60703.79501.327.53098.49298.84399.49298.948,0,.14798.061.25098.18802.30099.12598.05099.23999.05099.341,0,.10098-.05002.23798-.21399.41699-.492.17499-.27701.26498-1.02301.26498-2.23401,0-1.05798-.06299-1.741-.19098-2.04401-.125-.30099-.41602-.57898-.87003-.83099-.45297-.202-.94598-.45599-1.47598-.75699-.53-.30301-.897-.48001-1.09702-.52899-.10098-.05002-.556-.203-1.362-.45602-.80899-.19998-1.65399-.27698-2.53699-.22699s-1.52499.14099-1.92999.26501c-.40402.12799-.707.189-.90701.189-.20401,0-.68201.20398-1.439.60599-.75601.453-1.43799,1.035-2.043,1.73999-.45499.55902-.68301.90903-.68301,1.061,0,.15201-.03598.22702-.11298.22702-.07401,0-.20102.177-.379.52899-.177.354-.26401,1.28799-.26401,2.79999v2.27301l.53,1.06c.30301.65399.504,1.021.60501,1.09601.10199.07498.18997.19.26498.341.078.151.51599.595,1.32599,1.32498.806.733,1.841,1.42599,3.10202,2.08,1.26099.658,2.14398,1.088,2.64999,1.28799,3.078,1.41301,4.69299,3.104,4.845,5.07201.04999.556-.05402,1.136-.30402,1.74001-.85898,1.81599-2.52298,2.72499-4.995,2.72499-.85898,0-1.67899-.138-2.45999-.416-.78299-.27699-1.478-.692-2.082-1.24899-.60599-.554-1.034-1.08501-1.28699-1.589-.453-.95799-.681-2.01801-.681-3.179,0-.505-.25201-.896-.75803-1.174-.504-.27701-1.034-.31599-1.58899-.114-.655.25499-.95898,1.00999-.90698,2.26999"/>
        <path class="uuid-7d752b86-00b6-4da7-a4fc-3967ebae9637" d="m143.1608,250.18225c-.21301.319-.21301.56802,0,.74503.07098.07199.31799.12598.745.16098.42599.034,2.664.05301,6.711.05301l6.07401-.05301.21399-.26599c.14099-.14099.21201-.534.21201-1.17401-.035-1.02798-.24802-1.54199-.64001-1.54199-.17599,0-.26599.02402-.26599.07901,0,.05099-.12399.13098-.37302.23999-.211.07199-.418.133-.612.18701-.19498.05099-.48798.08899-.87799.10599-.392.017-.888.02499-1.491.02499h-2.397c-2.63-.035-4.03198-.10599-4.20898-.211l-.26901-.16098v-3.99503c0-2.133.02802-3.409.082-3.83798.05399-.42502.18701-.67401.39899-.745.42502-.10602,1.048.01999,1.86401.37,1.13599.46701,2.22.66101,3.25.58899,1.77399-.07098,2.87799-.40601,3.302-1.01099.216-.35699.285-.711.216-1.065-.07401-.35699-.29501-.61499-.66901-.77499-.371-.15701-.75299-.13202-1.14401.08099-.42499.24799-1.07498.36801-1.94598.34698-.871-.017-1.535-.14999-1.99701-.39899-.24899-.142-.42599-.21301-.53101-.21301-.10699,0-.29398-.04498-.56-.134-.26898-.08798-.686-.159-1.25299-.21298-.56699-.05499-.87701-.12601-.931-.21399-.05399-.08902-.082-.746-.082-1.97,0-1.22601.05499-1.91.16101-2.05002.108-.07098.327-.12601.66599-.16.33701-.03699,1.42999-.05701,3.27402-.05701h3.733l.63898.26801c.42401.18002.72601.302.90601.37201.14099.07199.272.05399.39902-.052.12198-.10599.20999-.29401.26599-.55899.05399-.26501.09698-.612.13098-1.04001,0-.423-.017-.68201-.05099-.76999-.03598-.091-.12598-.20502-.26801-.34601l-.319-.26901h-6.23199c-3.12698.034-4.95499.08102-5.48898.13303-.53101.05399-.79901.20599-.79901.45297,0,.17902.05301.319.16202.427.10599.10602.211.45401.31799,1.039.108.58502.142,3.45401.108,8.60501,0,5.612-.14301,8.61301-.42599,9.00198"/>
        <path class="uuid-7d752b86-00b6-4da7-a4fc-3967ebae9637" d="m171.75107,170.92465c.638.08401,1.04202.14902,1.21201.19.21201,0,.35101.01102.41501.03302.06299.02197.59601-.04202,1.59399-.19202.99799-.14801,1.625-.24399,1.88101-.28601.509-.12698,1.37997-.51099,2.61499-1.14697.297-.17203.64801-.41501,1.05301-.73401.405-.32001.798-.64902,1.17999-.99002.383-.33899.67801-.65799.89401-.95499.297-.34.50998-.57599.63699-.703.12799-.12799.19098-.22299.19098-.28598,0-.065.06403-.18103.19101-.35101.63901-.72299,1.21301-2.01901,1.72299-3.89001.168-.67999.255-1.69199.255-3.03098,0-1.33701-.065-2.22101-.19098-2.647-.12903-.423-.19101-.76401-.19101-1.02002,0-.25497-.09601-.55099-.289-.892-.19-.341-.34-.67899-.44501-1.021-.10699-.34-.203-.53101-.28799-.57498-.08499-.04001-.19101-.23203-.319-.57401-.255-.509-.48901-.892-.70099-1.147-.12802-.12799-.341-.36002-.638-.702-.89401-1.10501-2.04102-2.01901-3.44302-2.741-1.021-.51202-1.745-.83002-2.16998-.95801-.42502-.12601-1.27499-.27499-2.55002-.44699-1.01999-.17001-2.35999-.04102-4.01797.38199-.25601.08701-.58502.215-.99002.383-.40399.17001-.79599.341-1.17899.51001-.38202.173-.61801.29898-.70401.38498-.12601.08401-.29599.18903-.508.31702-.89301.51099-1.85001,1.42599-2.87,2.74301-.383.46899-.595.72299-.63901.76599-.08398.086-.44501.80798-1.08301,2.168-.46899,1.06299-.754,2.465-.862,4.20898-.10699,1.74503.01199,3.147.353,4.20901.168.427.255.69299.255.798,0,.10699.09399.35001.285.73398.19202.38303.28799.60602.28799.668,0,.065.12701.311.383.73401.25403.42599.414.66101.47702.702.065.04401.25598.31.57599.798.31702.491.67001.90302,1.05099,1.24402,1.06201,1.01999,1.72202,1.53,1.979,1.53.039,0,.147.09399.315.28799.173.19199.289.28598.354.28598.06299,0,.285.086.668.255,1.14801.51001,2.23199.83002,3.25299.957m-5.29398-6.25101c-.25403-.34-.52002-.754-.79602-1.24197-.27798-.48901-.51099-1-.702-1.53302-.19-.53-.30801-.987-.35101-1.37-.08398-.42499-.16998-.87-.25598-1.341-.08499-.422-.07501-1.04099.03299-1.84799.10602-.806.245-1.46701.41602-1.97601.168-.427.285-.75497.349-.98999.06299-.23401.16901-.436.319-.60599.14899-.16901.22501-.27502.22501-.319,0-.08301.08398-.245.254-.479.16898-.23199.38199-.49802.63699-.797.25598-.297.46799-.53101.638-.70102.80899-.84998,1.70099-1.509,2.67899-1.97699,1.10501-.509,2.297-.76599,3.57202-.76599.89297.043,1.487.08701,1.78598.12698.12701.04401.423.13.89301.25601.29599.08701.51901.18201.668.28699.14899.10602.28699.16101.41602.16101.168,0,.56097.211,1.17999.63699.616.42502,1.09399.806,1.43399,1.14801.42502.46698.75299.87299.98801,1.211.23499.341.37299.55499.41501.638.42499.46899.82999,1.427,1.21298,2.87201.168.72198.254,1.573.254,2.54898,0,.979-.14899,1.92599-.44598,2.83902-.297.91397-.50201,1.45599-.60602,1.625-.10599.17099-.16.29898-.16.38397,0,.17001-.32898.62701-.98798,1.371-.659.746-1.202,1.26602-1.62701,1.56302-.42599.297-.72299.509-.89301.63699-.17099.12701-.30899.19199-.414.19199-.10599,0-.30798.073-.60498.22202-.29901.14999-.745.31-1.34.479-1.23401.341-2.38202.38098-3.44302.12698-.384-.08499-.71399-.14798-.98798-.19098-.27701-.04102-.608-.159-.99002-.35001-.38199-.19101-.59598-.28702-.63898-.28702-.04202,0-.16901-.06497-.38101-.19199-.215-.12799-.43701-.26401-.67099-.414-.233-.147-.39401-.26498-.47803-.35199-.63699-.55002-1.16998-1.08301-1.59497-1.59402"/>
        <path class="uuid-7d752b86-00b6-4da7-a4fc-3967ebae9637" d="m63.8262,168.59616c-.15002.617-.25403.94702-.319.98901-.065.04199-.11902.138-.16.28799-.04202.147.01099.28601.16.41202.14798.129.35999.23499.63699.31998.276.08502.82999.11801,1.65799.09601.83002-.021,1.371-.117,1.62601-.28699.341-.16901.384-.46701.129-.89401-.29901-.46701-.46899-1.11499-.51102-1.94299-.04199-.832-.06299-3.371-.06299-7.62302,0-5.271.021-7.92899.06299-7.97198.08502-.16901.255-.10599.51102.19101.595.59598,1.423,1.50998,2.48801,2.74197.509.64001.83899,1.04303.98798,1.21201.14801.16901.22202.27701.22202.32001s.255.32999.767.86099c.509.53302.91299.987,1.211,1.371.298.38202.54199.66.733.828.19101.17001.28699.298.28699.384,0,.08499.10602.22299.319.414.21201.19199.48901.48999.82901.892.34.40399.595.703.76599.89301.16901.19199.53201.62698,1.08401,1.30899.552.67999.871,1.01901.95599,1.01901.08401,0,.129.06299.129.19098,0,.12903.08301.24503.254.35303.17102.10599.362.32898.57401.66898.34.59601.36002,1.42603.065,2.487-.08801.42502-.151.755-.19199.98901-.04202.23401-.11801.39301-.224.478-.10602.08499-.16.21201-.16.383,0,.51102.659.76501,1.978.76501,1.276-.043,2.04099-.19202,2.297-.448.12698-.12601.17999-.22202.159-.285-.022-.065-.13901-.30902-.35199-.73401-.21301-.383-.34-1.04099-.38303-1.97601-.04199-.93597-.06198-3.82797-.06198-8.67398,0-6.29401.06198-9.737.19-10.33401.12698-.59399.255-.97699.38199-1.147.25601-.383.21402-.681-.12698-.89398-.12802-.12799-.75302-.19202-1.88101-.19202-1.125,0-1.776.08701-1.94501.25601-.16901.172-.24399.32101-.224.44699.022.12802.09799.34.224.63901.255.63699.40302,1.33701.448,2.10501.039.76398.061,2.63498.061,5.60999,0,3.827-.04099,5.76501-.12601,5.80499-.08698.043-.297-.10699-.63898-.44699-.341-.33899-.85001-.914-1.53-1.72-.51102-.59601-.78702-.89301-.83002-.89301-.04199,0-.10599-.086-.19-.25598-.086-.21301-.702-.93701-1.85001-2.17001-.383-.466-.68997-.83899-.92499-1.11499-.23401-.27499-.41299-.49802-.54199-.67001-.46802-.51099-1.12601-1.255-1.97601-2.23199-.80798-.936-1.21298-1.44501-1.21298-1.53101,0-.08398-.09601-.17999-.28702-.28699-.19098-.10699-.28699-.20102-.28699-.28799,0-.08401-.19101-.31802-.57501-.70001-.42398-.46799-.78598-.85001-1.08301-1.14801-.34097-.42499-.71298-.767-1.116-1.021-.40399-.25598-.92599-.37299-1.56299-.35098-.63901.022-1.03101.117-1.17899.28799-.14902.16998-.17102.362-.065.57199.10599.215.245.57501.41599,1.086.16699.51102.24301,3.91299.22202,10.20401-.02103,6.29401-.10602,9.74701-.254,10.36398"/>
        <path class="uuid-7d752b86-00b6-4da7-a4fc-3967ebae9637" d="m111.38339,250.20966c.51297-.26599.84097-.47198.98398-.61298.534-.534.496-1.10001-.10599-1.70502-.14301-.177-.38202-.26599-.71899-.26599-.33902,0-.629.08899-.88101.26599-.20999.142-.336.211-.37.211-.035,0-.22202.082-.55899.241-.33902.16101-.92502.293-1.759.39902-.836.10901-1.724.11798-2.66501.02899-.939-.09-1.81-.15201-2.61002-.186-.79599-.03699-1.26898-.12601-1.41098-.26898l-.16101-.21402-.05399-6.60498c0-4.22501.02899-6.89001.082-7.991.05298-1.10202.22-1.84601.50598-2.23801.10602-.17401.12302-.31799.05099-.422-.13898-.28601-.79599-.41202-1.97-.375-.888,0-1.39398.07199-1.51797.211-.12402.14398-.142.32999-.05402.561.08902.23099.207.586.34702,1.06598.14297.47702.19498,3.27402.16,8.39102v7.66998l-.21201.80099c-.142.56601-.24802.888-.32101.95901-.25.24799-.16098.478.26801.69101.21201.10699.97601.159,2.29001.159.922,0,2.069.03799,3.43399.10699,1.367.07098,2.08899.12601,2.159.159.07199.10599.586.099,1.54501-.02402.95999-.125,1.70599-.27597,2.237-.45297.354-.108.78998-.29501,1.30701-.56003"/>
        <path class="uuid-7d752b86-00b6-4da7-a4fc-3967ebae9637" d="m101.5094,149.49417l.19199-.31799,2.168.064c1.74399,0,2.95499.19101,3.63501.573.33899.16901.59399.12802.76599-.12799.33899-.466.46701-1.10498.383-1.91299-.08499-.80701-.27899-1.254-.57599-1.33801-.16901-.043-2.892-.086-8.164-.129h-.76501c-3.82599,0-6.06998.02301-6.728.064-.66.04401-1.05099.21301-1.17899.51001v.06302c-.12802.21597-.17001.702-.12802,1.46899.04202.76498.14902,1.22198.319,1.36899.17001.15201.35901.16101.57401.03299.80701-.38199,1.95401-.61398,3.444-.702,1.48801-.08499,2.40201.043,2.741.383l.194.25403.064,9.18597c0,4.93301-.03299,7.85602-.09799,8.76901-.06299.91599-.245,1.67001-.54001,2.26401-.17297.341-.215.55298-.12799.638.08499.12698.40302.27698.95599.44598.254.043.72202.064,1.40201.064.383-.04099.703-.064.957-.064.936-.16901,1.233-.508.89401-1.01999-.12802-.16699-.26602-.51999-.414-1.052-.14902-.53201-.21402-3.86899-.19302-10.01501.022-6.14099.095-9.29999.22403-9.47"/>
        <path class="uuid-7d752b86-00b6-4da7-a4fc-3967ebae9637" d="m136.7543,155.93594c.168-.63699.43399-1.31598.797-2.04099.35999-.72299.668-1.18799.92398-1.40298.129-.12701.19299-.22202.19299-.285,0-.065.22302-.31.668-.73502.44803-.42398.73502-.659.86102-.702.17099-.08401.46899-.27499.89301-.57199,1.10498-.72501,2.29599-1.172,3.57199-1.34201,2.50699-.33899,4.80399.14999,6.888,1.46799.46899.29703.74399.44601.82999.44601.08401,0,.24301.17099.479.51001.23199.34198.37.617.41299.82999.08401.298.233.44501.44601.44501.21399,0,.40399-.168.57599-.51102.16702-.33698.23199-.95398.189-1.84598-.043-1.19202-.23398-1.85202-.57199-1.978-.17099-.04102-.32001-.12802-.44699-.25702-.17001-.12698-.66-.40201-1.466-.828-.81-.42499-1.276-.63898-1.40601-.63898-.08301,0-.41299-.09402-.987-.28702-.57401-.189-1.70099-.28699-3.38101-.28699-1.67798,0-2.85898.108-3.53799.319-1.48999.50998-2.48898.93698-2.99799,1.27698-.17001.12802-.384.25403-.63901.38303-.55099.33899-1.10599.80698-1.65799,1.40298-.172.16901-.297.255-.383.255s-.15802.07401-.22202.22101c-.065.15198-.159.28998-.28601.418-.12997.12598-.23599.254-.32199.38-.806.97897-1.20999,1.50998-1.20999,1.59598s-.08701.26501-.254.54102c-.172.27701-.255.46698-.255.57401,0,.108-.08701.31-.25699.60599-.298.59702-.55301,1.61801-.76602,3.061-.211,1.276-.12598,2.76599.255,4.46701.08499.297.23502.72098.44699,1.27399.21402.552.448,1.095.703,1.62799.255.53101.44501.88101.57401,1.052.16901.255.254.41299.254.47702,0,.06299.14801.26599.44702.60797.297.34003.638.68903,1.021,1.05103.383.36099.67798.62698.89297.79498,1.10501.853,1.72101,1.27701,1.84903,1.27701.04099,0,.16898.064.383.19101.59399.42599,1.552.767,2.86899,1.021.34201.08499.76501.19,1.27499.31799,1.10699.21399,2.478.17001,4.11502-.12799,1.63599-.29501,3.00897-.785,4.11298-1.465.46802-.25601.80701-.44702,1.021-.57602.34003-.168.552-.435.63901-.797.082-.35999.10501-1.02899.06302-2.009-.08502-.63699-.17102-1.082-.25601-1.33798-.086-.25601-.233-.38303-.44601-.38303-.21399.04401-.35098.18201-.41599.414-.06201.23502-.16901.414-.31699.54401-.14902.12601-.224.22299-.224.28601,0,.064-.12802.23401-.38202.509-.255.27698-.414.41599-.479.41599-.06299,0-.16.06302-.28699.19101-.12701.12698-.5.32999-1.117.60501-.616.27899-.98901.41498-1.11499.41498-.12802,0-.362.065-.702.19202-.42401.21298-1.06201.328-1.91302.35001-.84998.02197-1.616-.05301-2.297-.22302-1.44501-.34-2.48599-.74298-3.125-1.21201-.33899-.21198-.53198-.31799-.573-.31799-.12698,0-.39398-.19098-.797-.57599-.40298-.38-.798-.785-1.181-1.20999-.38101-.42603-.57401-.68002-.57401-.76602,0-.04199-.064-.12799-.19098-.255-.59402-.67999-1.10501-1.95398-1.53-3.827-.08502-.423-.09702-1.052-.03201-1.88199.064-.82599.17999-1.539.35101-2.13602"/>
        <path class="uuid-7d752b86-00b6-4da7-a4fc-3967ebae9637" d="m102.40158,295.33766c.354-.19901.76999-.492,1.25101-.87.478-.379.94598-.769,1.39999-1.174.45398-.40401.806-.78101,1.06-1.13501.35199-.40399.60599-.68199.75699-.832.14902-.15199.228-.265.228-.341,0-.07599.07401-.21399.22501-.416.758-.85799,1.43701-2.39499,2.043-4.61699.203-.808.30402-2.007.30402-3.595,0-1.59-.07401-2.63699-.22702-3.142-.151-.505-.22699-.909-.22699-1.20999,0-.30402-.11401-.65601-.341-1.06201-.22598-.40201-.40601-.806-.52899-1.20999-.12799-.40302-.23901-.63-.341-.68201-.10101-.048-.22601-.27499-.379-.681-.30301-.60599-.58099-1.05899-.83301-1.362-.15201-.15201-.40399-.42801-.75601-.83099-1.06-1.314-2.422-2.39801-4.08698-3.25699-1.21201-.604-2.07101-.98401-2.57401-1.13501-.50601-.151-1.51401-.328-3.02802-.52899-1.21198-.203-2.80099-.052-4.76797.45297-.30301.10303-.69501.25302-1.173.453-.48102.20401-.94702.40601-1.401.60602-.45401.203-.73102.354-.83401.45599-.14899.10001-.353.22699-.604.37799-1.06.60501-2.19598,1.69-3.40601,3.254-.45398.55502-.70898.86002-.758.90802-.09998.103-.52899.961-1.28699,2.57401-.55499,1.263-.897,2.92798-1.021,4.99698-.12799,2.069.01099,3.735.41599,4.995.202.505.30301.82001.30301.94701,0,.125.11401.41499.341.87.22598.453.34.71901.34.795,0,.07501.15201.36601.453.87001.30399.504.49301.78299.569.83299s.30301.367.681.94501c.379.58299.79401,1.07399,1.25,1.478,1.259,1.211,2.043,1.81599,2.34601,1.81599.04797,0,.177.11301.37698.338.203.22801.34201.343.418.343.07602,0,.341.101.79401.302,1.362.606,2.651.98401,3.86099,1.13501.75601.101,1.23599.17799,1.43802.23.25098,0,.41599.011.49197.035.07703.02699.707-.048,1.89301-.22601,1.18402-.17699,1.93002-.29099,2.233-.34099.60501-.15001,1.638-.60701,3.10101-1.36301m-8.62799-1.74001c-.45203-.10199-.84402-.17599-1.173-.228-.33002-.05-.71802-.18799-1.17401-.41499-.453-.229-.70599-.343-.75601-.343-.04999,0-.202-.07401-.45398-.226-.25302-.15201-.51801-.314-.79501-.492-.27701-.17799-.466-.31599-.56799-.41699-.75699-.655-1.38901-1.285-1.89099-1.89-.30502-.40401-.61801-.895-.94702-1.47801-.328-.57799-.60498-1.18399-.83298-1.817-.22702-.62999-.36502-1.172-.41501-1.62599-.103-.50301-.20401-1.034-.30301-1.591-.10199-.50299-.09-1.235.03702-2.19499.125-.957.29099-1.73999.491-2.34399.202-.505.34198-.897.418-1.173.07401-.27802.19998-.51901.37698-.72202.17801-.198.26602-.327.26602-.37698,0-.10001.10098-.29001.30099-.569.203-.276.45499-.591.759-.94501.302-.353.55399-.63.75598-.832.957-1.009,2.017-1.79199,3.17801-2.34799,1.31299-.60501,2.72601-.90701,4.23898-.90701,1.061.05002,1.76703.10001,2.12003.151.15298.05002.50497.151,1.06.30301.35199.10199.61899.215.79498.33899.177.12601.34201.19.492.19.20102,0,.668.255,1.401.75702.73102.50598,1.29901.961,1.703,1.362.50299.55701.89499,1.035,1.17499,1.43698.27502.40601.43802.65802.49002.758.50299.55701.98398,1.69302,1.43799,3.40701.20099.858.302,1.867.302,3.02899,0,1.16-.17599,2.282-.52899,3.368-.353,1.08601-.59399,1.72801-.72,1.929-.125.203-.189.35501-.189.455,0,.201-.39102.744-1.172,1.62601-.78302.88499-1.42603,1.505-1.931,1.856-.50601.353-.858.60399-1.05801.756-.20401.15199-.367.226-.49399.226-.12601,0-.367.091-.71902.26601-.353.17799-.883.366-1.58899.569-1.46298.405-2.82599.45399-4.08798.15099"/>
        <path class="uuid-7d752b86-00b6-4da7-a4fc-3967ebae9637" d="m122.047,148.60165c.08499-.42499.22299-.80798.41397-1.14798.19101-.34.26401-.57401.22302-.702-.08701-.297-.702-.48801-1.85101-.573-.76401,0-1.38199.06299-1.84601.19098-.59799.16901-.81097.44702-.64099.83002.08401.16901.21301.48801.383.95499l.258.638v19.39099l-.32199.828c-.297.80801-.39301,1.29602-.28601,1.46701.10501.16901.58502.276,1.43402.319,1.573.08401,2.48801-.022,2.74298-.319.12802-.17099.09601-.43701-.095-.797-.19098-.362-.32898-.776-.41397-1.24399-.08701-.46902-.11801-3.77301-.09601-9.91901.01999-6.142.05298-9.44901.09601-9.91702"/>
        <path class="uuid-7d752b86-00b6-4da7-a4fc-3967ebae9637" d="m79.6846,232.97617c.33698-.03699,1.42899-.05698,3.27698-.05698h3.729l.64001.26801c.42499.17999.72498.30197.90598.37198.13901.07202.272.05402.397-.052.12402-.10599.21402-.293.26901-.55899.05301-.26501.09601-.612.13-1.04001,0-.423-.017-.68201-.052-.76999-.03601-.091-.125-.20502-.26501-.34601l-.323-.26999h-6.229c-3.12698.035-4.95798.082-5.48898.134-.534.05399-.79901.20599-.79901.452,0,.17999.05499.32001.16101.42899.104.10501.211.452.31601,1.03702.10898.58499.14499,3.45499.10898,8.60699,0,5.612-.14301,8.612-.42499,9.00101-.21301.31998-.21301.569,0,.746.07001.07098.31601.125.74399.15997.42502.03403,2.66602.05301,6.71201.05301l6.07401-.05301.21399-.26599c.14001-.14099.21201-.535.21201-1.17398-.035-1.02802-.24899-1.54202-.63699-1.54202-.17801,0-.26901.02402-.26901.07901,0,.05099-.125.13101-.371.23999-.21198.07202-.41898.133-.61298.18701-.19702.05099-.48901.08899-.88101.10599-.38901.01801-.88501.02502-1.48999.02502h-2.397c-2.63-.035-4.03201-.10602-4.20901-.21103l-.267-.16098v-3.995c0-2.133.026-3.409.08099-3.83801.05301-.42499.186-.67401.39801-.745.42801-.10599,1.048.01999,1.86499.371,1.13602.466,2.21902.66,3.25201.58798,1.77301-.07098,2.87601-.40598,3.30099-1.01099.21301-.35699.28299-.711.21301-1.06601-.07001-.35599-.29401-.61398-.66501-.77399-.37399-.15701-.75601-.13199-1.14401.08099-.42798.24802-1.07599.36801-1.94699.34702-.871-.017-1.53699-.15002-1.99701-.39801-.24899-.14401-.42798-.21399-.534-.21399-.10699,0-.29199-.04501-.55798-.13303-.26801-.08899-.685-.15997-1.25302-.21399-.56799-.05499-.87799-.12601-.931-.21399-.05499-.08902-.08099-.746-.08099-1.97101s.056-1.909.16101-2.04999c.10599-.07001.327-.125.66501-.15903"/>
        <path class="uuid-7d752b86-00b6-4da7-a4fc-3967ebae9637" d="m11.60501,230.68677c.01999,0,.142.02103.646.26001.561.241,1.328.38901,2.27899.43701.66501.043,1.24899.11301,1.75101.20801.28101.03098.62698.047,1.03598.047.81702,0,1.88501-.06201,3.194-.185.55103-.048,1.36502-.19803,2.49103-.46103,1.10199-.25299,1.84198-.45599,2.19598-.59998.23901-.09201.51401-.18402.827-.27402.33301-.099.64801-.23599.93301-.40698.327-.19601.42398-.20801.43298-.20901.091,0,.20401,0,1.435-.69299,1.00101-.565,1.27701-.69101,1.34702-.71399.28799-.08801.36301-.26102.38098-.371.04602-.052.21902-.216.86801-.642.73599-.55902,1.57101-1.293,2.48001-2.18002,1.18698-1.159,1.39398-1.51797,1.423-1.71198.02499-.03201.08899-.10901.26199-.27402.298-.284.40298-.43799.39899-.55399,0-.00302.022-.05402.151-.17603.371-.35397.83301-1.189,1.41202-2.556.56699-1.33698.931-2.41998,1.07898-3.21298.297-1.367.383-2.97202.26001-4.771-.12201-1.80002-.38599-3.354-.78201-4.629-.358-1.017-.56598-1.63501-.65799-1.94101-.25-.854-.495-1.28799-.798-1.396v-.00201c0-.48798-.414-1.17999-1.30798-2.18198-.28-.30701-.51602-.64203-.724-1.03302-.30301-.38098-1.10001-1.18799-2.38101-2.40201-.44598-.37799-.94598-.758-1.49701-1.13699-.66498-.40698-1.224-.79898-1.69498-1.18799l-.082-.047.63498-.55099c.89401-.78.961-.936.95901-1.06201.00101-.004.02798-.08701.25998-.306.29501-.28201.401-.435.397-.55899.004-.009.03101-.09601.26501-.42603.30899-.49197.60699-1.35999.91199-2.66998.05099-.34702.04001-.94101-.034-1.763-.077-.84702-.19199-1.42999-.34399-1.763-.41199-1.22-.82401-1.965-1.23499-2.25699-.08102-.07703-.19302-.22601-.33102-.444-.104-.16501-.42899-.526-2.01599-1.71503-.22-.211-.67801-.444-1.39999-.71399-.70502-.26199-1.20001-.414-1.52499-.46701-.45401-.04797-3.056-.06998-7.95203-.06998-7.32098,0-7.66098.16299-7.77499.22098-.27399.08502-.44998.23203-.52499.43402-.08398.22998-.02701.49799.19.83701.07101.09198.22699.383.47101,1.30899l.28699,1.129v8.57501c0,7.05499-.04001,9.004-.07498,9.39999-.05801,1.08899-.54901,1.314-.91101,1.388-.26901.052-.59302.186-.98801.409-.47699.271-.60501.28198-.617.28299-.12698,0-.32401.047-.83099.39099-.41199.28003-.52798.306-.52798.30801-.19302,0-.53403.133-2.35703,1.73199-1.29199,1.134-2.448,2.77802-3.44,4.89999-.15198.39102-.27698.86002-.38098,1.46002-.05002.60898-.07401,1.48199-.07401,2.66898,0,1.19702.04901,2.05301.14999,2.621.34702,2.02802,1.39999,4.17401,3.12601,6.37701.25601.33801.65799.78,1.19501,1.31299.70499.702.927.84201,1.06198.867.04401.02802.181.12701.56302.46802.41998.371.80099.62399,1.168.772.33798.13898.42099.20499.42099.181.04102.11298.13501.22498.814.54898.427.202.71701.34799.884.45102.099.047.31302.133.642.25299.32101.117.62799.22101.927.31799.42001.13101.57101.14899.65302.14899m2.29199-41.79199c0-2.79999.077-3.67398.14099-3.91501.04501-.17099.16901-.40399.74802-.45297l.08298-.00702.06403-.06198h5.11798c2.517,0,4.09799.04498,4.698.13599.57501.08899,1.19702.35901,1.85901.80701.64099.392,1.17999,1.017,1.59698,1.84601.229.52597.358,1.155.38303,1.86499.021.70398-.08102,1.27399-.31,1.70599-.60202,1.27899-1.664,2.15201-3.16901,2.599-.25.08899-1.44501.19699-5.724.19699l-5.09601.06702-.15799-.20001c-.07001-.10999-.23401-.75101-.23401-4.30499v-.28101Zm-6.31299,35.52899c-1.83002-1.67297-2.03601-2.06598-2.05301-2.12997,0-.08701-.021-.17001-.41-.72702-.26599-.37598-.31601-.49399-.323-.49399v.00101c0-.08102-.022-.19901-.28201-.729-.16498-.336-.29498-.67502-.38699-1.00702-.10001-.34598-.20898-.763-.32999-1.24799-.117-.47101-.17603-1.12-.17603-1.931,0-.81.13202-1.617.39203-2.401.24698-.75299.36298-1.00201.409-1.08301.202-.082.26498-.37399.29398-.51099.04202-.19299.17203-.41501.38901-.66299.30301-.34702.397-.504.418-.61801.035-.052.16699-.216.668-.69.186-.177.43701-.383.74802-.60901.31198-.229.62698-.44897.94498-.65598.31201-.207.62802-.40201.944-.58701.36603-.215.586-.29501.71201-.32401.25-.06601.43201-.06201.478-.03.065.15698.16602,1.14801.10703,6.01001v5.82098l-.35703,1.09c-.22998.82101-.31799.98199-.30499.98199h.00101c-.21701.138-.21701.44302-.21701.54401,0,.44601.55801.64401.771.716.45001.099,1.18701.146,2.25.146,1.08701,0,1.75-.07401,2.07501-.228.289-.12299.46399-.293.51901-.508.05399-.21201-.01501-.44299-.20801-.68799-.09-.11401-.246-.39902-.47702-1.11801l-.28198-.79999v-6.30103c.061-5.33798.134-6.37399.164-6.49799.01401-.03299.05899-.13101.31-.17801.11801-.02701.474-.03299,1.52301.17102.81198.16199,1.41098.33099,1.797.51498.241.091.55099.22699.93698.409.452.21701.62802.354.69501.431.17499.20401.29599.29102.38199.28201.00601.00299.06802.03198.26801.19598.19299.16299.384.34399.56702.54001.18298.19601.37598.42499.57199.67801.194.255.33801.44901.42099.565.61502,1.12399.92603,2.07098.92603,2.81598,0,.61301.056,1.00201.17297,1.224.28101.534.83301.85703,1.67502.96201.44998,0,.875-.186,1.246-.53799.44498-.35199.53198-.53601.561-.66101.01797-.08701.03998-.28198.03998-.987,0-1.38-.22998-2.54199-.698-3.478-.31198-.46799-.32599-.599-.327-.60199,0-.129-.061-.33301-.78601-1.25702-.49298-.63498-.97299-1.151-1.40598-1.51599-.354-.383-.823-.78-1.39401-1.18298-.83899-.586-1.00699-.63602-1.11801-.63602h-.00098c-.02002-.00101-.138-.026-.58902-.28299-.535-.30402-.73599-.34302-.849-.34302-.02298-.00098-.16599-.017-.745-.29099-.466-.224-.896-.33801-1.267-.33801-2.30399-.05798-2.815-.315-2.91101-.40399-.039-.06699-.16599-.46899-.16599-2.84698,0-2.397.142-2.80701.186-2.875.00699-.009.16901-.23901,1.71298-.23901,4.35501-.04199,6.879.022,7.47501.194.68701.26099.914.29501,1.034.29501.03201.00098.233.02698,1.18802.46597.72098.33002,1.41998.681,2.07898,1.039.90601.49103,1.069.65701,1.10101.70502.21799.276.33099.35999.42801.36099.039.017.22998.12799,1.02698.88501.63901.60699,1.16702,1.13098,1.57101,1.561.51001.53098.86301,1.08798,1.043,1.63898.026.10101.099.38901.328.44601.02798.039.091.14099.19699.38998.16.38101.332.66602.51901.86801.14499.159.23499.319.27298.48999.05701.229.185.65601.37402,1.23801.23898.72601.50897,2.02899.80099,3.87399.186,1.03.09,2.26001-.289,3.65701-.155.48901-.229.83099-.229,1.04099,0,.19901-.117.66901-.673,1.77802-.45499.91299-.93201,1.724-1.40799,2.40399-.63602.83002-.63602.91901-.62402.95901-.00198.00198-.03299.056-.20599.17899-.229.16299-.353.31-.384.46002-.05298.06198-.22299.23898-.77499.74197-.56601.513-.94501.86401-1.12299,1.034-1.44101,1.09702-2.978,1.97803-4.57501,2.621-1.43399.63501-2.46399.957-3.064.957-.26401,0-.75.07202-1.44299.21301-1.67599.36401-3.59702.362-5.70401-.00101-.91199-.181-1.914-.45898-2.983-.82898-1.42999-.45203-2.83301-1.30402-4.16998-2.53003"/>
        <path class="uuid-7d752b86-00b6-4da7-a4fc-3967ebae9637" d="m61.10736,180.03867c-.43298.10001-.806.151-1.11298.151-.349,0-.797.08401-1.32901.255-.51498.164-.87399.26102-1.10001.297-.267.04501-.53699.134-.79898.26801-.24701.12201-.67603.30402-1.27902.54599-.66098.289-1.35199.66602-2.04898,1.117-.20901.12399-.37402.229-.49802.31201-.255.16998-.655.48499-1.172.92398-.31299.224-.40601.26102-.38901.26202-.12.00098-.25299.06699-.539.38498-.17099.19101-.47699.48801-.96298.93201-.65399.599-.76199.75-.77899.862-.02301.03702-.104.14301-.367.40799-1.09802,1.14902-1.32001,1.54703-1.34802,1.76501-.01898.03101-.073.11301-.22699.29999-.233.28601-.32999.46201-.328.59201-.00198.004-.022.091-.229.36499-.224.298-.32199.50101-.32199.66,0,.00702-.004.07501-.12799.21701-.129.14899-.23502.29001-.34201.452-.69299,1.51401-.69299,1.66901-.69299,1.75299,0,.02902-.01901.164-.255.668-.26401.55801-.298.75-.298.86502,0,.056-.02399.242-.17099.84598-.29501.87402-.495,2.24402-.59601,4.07501-.104,1.82999-.07098,3.21899.095,4.12799.37601,2.25.70401,3.63602,1.01001,4.242.20398.36499.215.479.215.49899,0,.08102,0,.24902.51099,1.29703.34201.70499.67599,1.34097,1.01901,1.94397.51199.90601.638,1.02402.73599,1.08102,0,.16898.108.36899.36002.66998,1.57999,1.91299,2.65799,3.069,3.29999,3.539.23001.15302.50299.367.83899.66.453.37201.83502.64801,1.134.82001.28601.16199.69101.40698,1.22202.72998.78198.48401.93399.526,1.03101.526h.00098c.017.00101.11801.022.509.21802,1.24902.66599,3.11102,1.14801,5.52701,1.43298.49301.08301.89401.125,1.177.125h.008c.146.01202.31601.01901.51102.01901.48199,0,1.11697-.03699,1.91898-.112,1.12802-.104,1.884-.216,2.28601-.33801.711-.125,1.168-.22897,1.34201-.30698.31799-.04401.63498-.15701.94-.33502.35699-.202.45798-.21298.46698-.21399.151,0,.32101-.06201.521-.185.10703-.06799.32501-.177.755-.319.34-.12799.82602-.37,1.444-.72101.63501-.358,1.026-.62399,1.19601-.814.116-.13501.172-.164.164-.16501.14297,0,.349-.01398,1.99899-1.599,1.06299-1.02298,1.81299-1.83899,2.21701-2.40298.33099-.37302.53699-.61099.62097-.716.11902-.14902.17401-.272.17001-.35501.00201-.00699.03101-.086.23199-.35498.26901-.354.323-.492.319-.56802.00201-.008.02701-.07797.20401-.32199.177-.242.39499-.668.66998-1.30099.31601-.73801.423-.867.41302-.867h-.00101l.05899-.03.035-.05499c.22-.353.58899-1.45502,1.12799-3.36902.53601-1.90198.70502-4.25897.49802-7.00598-.11301-1.67999-.198-2.09601-.25201-2.24899-.41998-1.57001-.48099-1.98001-.48099-2.08502,0-.11798-.05499-.366-.452-1.38699-.39801-.84-.547-1.21701-.60501-1.38501-.08701-.25998-.27301-.63498-.56699-1.14099-.24301-.44501-.42603-.789-.54102-1.02301-.13199-.29999-.34601-.65598-.63998-1.05698-.28101-.379-.48203-.67102-.61102-.88702-.21298-.29599-.802-.94598-1.79898-1.98499-1.35699-1.42099-1.44901-1.435-1.55301-1.414l-.04501-.06299c-.09598-.095-.35199-.297-.758-.60001-.672-.508-.733-.505-.78098-.504-.00201-.00101-.04001-.01401-.11502-.05801-.22198-.22198-.71799-.52899-1.56-.965-.832-.422-1.51401-.72598-2.077-.92599-1.077-.414-2.14401-.707-3.17499-.871-2.755-.40298-4.52402-.36401-5.47803-.15201m4.04303,3.21899c.61099.05902,1.09998.14902,1.47198.27002.892.20401,1.88599.55099,2.95901,1.03,1.07898.479,1.88797.922,2.39999,1.31299.271.22501.47998.37201.61398.431.19601.15802,1.15802,1.10101,2.86301,2.80402.186.18698.23001.267.237.267v-.00201c0,.172.09399.31601.24899.38901.04901.03.26401.22699,1.01102,1.50699.117.19601.319.582.603,1.14801.35699.71399.405.83002.40601.815,0,.095.03299.24799.26999.71701.19901.40298.22.55499.22.60199,0,.11301.02701.32999.25601.901.80298,2.40701.96597,5.13199.48199,8.09698-.20801,1.07501-.35501,1.73502-.452,2.02002-.10501.323-.18802.633-.25.94901-.05902.28799-.16702.612-.323.961-.48401,1.091-.86902,1.84-1.14502,2.233-.16501.24899-.409.65399-.741,1.23599-.229.38501-.46701.698-.70099.936-.29102.29398-.38901.41599-.42001.505-.056.06799-.258.28598-.987.99298-.84799.82501-1.19199,1.13202-1.328,1.23999-.513.39603-1.13498.81302-1.84698,1.24103-.90402.54099-1.108.60599-1.13501.61099-.08798,0-.22501.02298-.78.30099-.353.177-.72.315-1.08899.41101-.56.14798-.73401.24799-.823.319-.01102.008-.129.086-.742.16498-.47202.06201-1.095.15402-1.86801.27701-.92499.12-1.629.16-2.06.12601-.177-.04102-.67999-.12601-1.49399-.24899-1.44101-.20102-3.13-.77002-5.03-1.70102-.47702-.198-.974-.48801-1.48203-.86099-.60898-.44299-.83298-.65701-.91397-.75299-.10703-.271-.30103-.30301-.37701-.30301-.00601-.00101-.017.02701-.228-.15701l-.664-.57397c-.15302-.151-.40601-.43301-.75201-.84302-.34698-.405-.67398-.79498-.978-1.16299-.30499-.36301-.495-.60199-.55399-.689-.12201-.245-.29602-.54199-.53302-.91101-.26099-.39999-.36298-.63901-.40298-.76898-.04501-.14401-.121-.39902-.31799-.46002-.02301-.034-.07202-.117-.14999-.29898-.647-1.51102-.71701-1.854-.71701-1.93002,0-.10498-.02301-.29099-.19901-.82199-.358-.914-.60001-2.26199-.72101-4.00699-.11899-1.741-.06-3.043.17801-3.88101.08899-.35699.16199-.745.21799-1.155.05801-.401.14401-.70401.25101-.90298.13602-.24503.22501-.53.26901-.83401.15698-.82401.72501-2.056,1.69101-3.66901.36298-.64499.64798-1.11099.81998-1.358.21002-.211.40402-.44897.573-.69897.116-.15402.35602-.41602.71301-.77103.37601-.37598.76498-.74399,1.15698-1.09698.40503-.36401.73203-.647.97202-.85001.436-.358.858-.64899,1.25201-.86499.42697-.23502.68597-.383.84097-.49002.37701-.34198,1.27402-.73599,2.66901-1.17499,1.077-.32098,2.198-.54599,3.327-.66699.39001-.04001.86301-.047,1.43802-.03101.57999.022,1.18298.064,1.79401.12299"/>
        <path class="uuid-7d752b86-00b6-4da7-a4fc-3967ebae9637" d="m50.1973,250.18167c-.211.392-.229.65698-.05301.79999.07101.03601.33801.091.80002.16.392.07199,1.71201.09799,3.96899.07901,2.25299-.017,3.668-.04199,4.233-.07901.569-.069.99701-.177,1.28-.32001.28299-.142.49899-.21399.64001-.21399.14297,0,.53198-.15799,1.172-.48001.638-.319,1.04898-.56598,1.22598-.745.10602-.10599.371-.32098.80002-.63699.423-.323,1.02798-.979,1.81-1.974.069-.07101.151-.203.23801-.39801.08899-.194.267-.52399.53497-.98599.26602-.461.41501-.79999.45203-1.01401.03598-.21201.10699-.47699.21198-.797.21402-.60498.32001-1.50101.32001-2.69098,0-1.18903-.10599-2.08701-.32001-2.69202-.10498-.35101-.15799-.56601-.15799-.63699,0-.14301-.17899-.54102-.53299-1.198-.354-.65802-.62201-1.10901-.80002-1.358-.211-.28601-.37299-.51501-.479-.694-.49698-.63901-.819-.95999-.95999-.95999-.07098,0-.142-.05402-.21201-.15903-.07199-.10599-.37299-.34799-.905-.71899-.53299-.37399-.95898-.64999-1.27798-.82599-1.03201-.49701-2.01801-.81702-2.95801-.95999-.94199-.14001-2.62-.194-5.03699-.15802-2.37802.035-3.65402.10699-3.83502.21201-.353.17801-.388.48099-.10498.90601.13998.21298.241.479.293.79999.05298.319.08099,3.10699.08099,8.36401.034,4.22598.034,6.75699,0,7.591-.035.83499-.177,1.42999-.42801,1.784m2.87802-16.78302l.53098-.47699h2.02502c1.59998-.035,2.85098.05402,3.75598.26599.90601.211,1.73199.569,2.478,1.06802.28302.211.47702.354.58801.423.10498.073.28299.23199.52899.48199.427.423.77499.823,1.04001,1.198.26599.37198.49799.76498.694,1.17099.19199.41.345.82599.452,1.25201.10699.42599.17599.888.21301,1.38599.10498,1.207-.02002,2.255-.37201,3.14401-.46201,1.276-1.047,2.27298-1.759,2.98398-.285.31702-.72101.68002-1.30701,1.08902-.58398.409-.92899.61301-1.03699.61301-.07101,0-.26602.09097-.586.26599-.32001.17899-.76501.319-1.33301.427-.56799.10599-1.617.16098-3.142.16098-1.10199,0-1.758-.00998-1.97101-.02798-.21399-.017-.392-.078-.53299-.186l-.26599-.215v-15.02402Z"/>
        <path class="uuid-7d752b86-00b6-4da7-a4fc-3967ebae9637" d="m10.55679,174.03397h3.42502v-63.86798l84.409-.01001v-3.32999h-.026v-18.89603l-.004-.11798c-.00601-.08099-.01501-.159-.03-.25702.01199-.08499.02399-.17099.02899-.25699l.022-.19c.258-2.09299,2.22601-3.67099,4.577-3.67099,2.349,0,4.31601,1.578,4.57501,3.67099l.022.18399c.004.08102.01398.16101.02899.26202-.013.086-.02402.17398-.02899.26398l-.00403,19.00803h-.00897v3.34l84.939-.01001v64.802l3.42297.62799v-68.75998h-6.13797V41.15698l9.51895-3.81-38.48297-14.30298-36.62698,13.68698,9.22598,3.69897v5.789l-29.177-9.57199-18.522,5.979c-2.24298-14.388-4.18597-20.64398-7.38998-20.64398-.02899,0-.05701-.00098-.086,0-3.50601,0-5.51199,7.68896-8.07901,25.66397l-3.84799,1.242c-3.62399-24.21396-5.85199-34.306-10.396-34.306-.03101.00104-.06201,0-.09302,0-4.88998,0-7.11298,12.01401-11.336,41.26199-.004.03-.008.061-.013.09201l-2.60001.83899c-.84198-5.02798-1.65598-10.60397-2.51199-16.465C35.1738,11.73596,32.96979,0,28.0668,0c-.03101.00201-.06201,0-.09399,0-4.88901,0-7.11301,12.01501-11.33502,41.26196-1.12,7.76001-2.17798,15.09003-3.28598,21.116-3.20001,17.39001,7.86899,22.90503,12.99899,24.50003.01501,7.30798.05499,18.95398.05499,18.95398l.004.99402h-4.84v-.02002h-3.37v.02002h-7.65201v3.34h.00101l.008,63.86798ZM160.80582,26.64096l29.11798,10.82202-3.52899,1.41199v67.95102h-14.745v-39.44601l7.93201-6.01099-42.80902-14.04501v-9.17401l-3.26599-1.30798,27.29901-10.20102Zm11.61499,35.92401l-4.142,3.14099v41.12003h-57.358l-.02899-21.61002h-.35901c-1.05402-3.01898-4.07401-5.14999-7.57401-5.14999-3.50198,0-6.51999,2.13101-7.577,5.14999h-.38602v21.61002h-56.04599v-43.37701l-2.92899-1.25699,68.19598-22.00101,68.20401,22.37399ZM78.2778,25.40796c1.522.72003,3.117,8.71902,4.55899,18.14301l-9.59399,3.09601c1.52899-10.87201,3.27301-20.60101,5.035-21.23901m-22.41199-7.51898c2.53998,1.68701,5.25497,18.36499,7.284,32.01599l-15.224,4.91299c2.095-14.48599,5.13498-34.96597,7.94-36.92899M16.5658,62.96896c1.12-6.08798,2.18301-13.448,3.30801-21.23999,2.09698-14.52802,5.25198-36.38998,8.155-38.42197,2.892,1.92096,6.01199,23.28195,8.086,37.47498.84799,5.802,1.72098,11.77499,2.60498,17.008l-12.26999,3.95898,9.13,3.92102v14.69299c-2.12399,2.94199-4.078,3.20099-5.97,3.44199-.44901.05801-.91199.117-1.36301.21201-4.57098-1.14499-14.548-5.46298-11.681-21.048m13.75702,42.767c-.02103-1.159-.03302-3.67999-.04703-6.57797-.01999-4.24103-.04398-9.332-.108-12.12903,1.46103-.18698,3.39603-.47897,5.41202-1.98898v21.78601h-5.237l-.01999-1.09003Z"/>
        <path class="uuid-7d752b86-00b6-4da7-a4fc-3967ebae9637" d="m107.96152,57.96875h-10.159v15.009h10.159v-15.009Zm-3.104,11.905h-3.95001v-8.80099h3.95001v8.80099Z"/>
        <path class="uuid-7d752b86-00b6-4da7-a4fc-3967ebae9637" d="m136.84351,57.96875h-10.15799v15.009h10.15799v-15.009Zm-3.104,11.905h-3.94901v-8.80099h3.94901v8.80099Z"/>
        <path class="uuid-7d752b86-00b6-4da7-a4fc-3967ebae9637" d="m79.07849,57.96875h-10.159v15.009h10.159v-15.009Zm-3.10397,11.905h-3.95001v-8.80099h3.95001v8.80099Z"/>
      </g>
      <g>
        <path class="uuid-7d752b86-00b6-4da7-a4fc-3967ebae9637" d="m13.36032,388.98962c.38232.66211.87939,1.15527,1.49023,1.47949s1.30664.48535,2.08691.48535c.48584,0,.94189-.07324,1.36914-.2207.42676-.14648.79834-.35352,1.11523-.61816.31641-.26465.56641-.58496.75049-.96094.18408-.375.27588-.79785.27588-1.26953,0-.54395-.11377-.99316-.34229-1.34668-.22803-.35352-.53369-.64355-.91602-.87207-.3833-.22852-.81348-.42285-1.29199-.58496s-.97168-.32422-1.47949-.48633c-.50781-.16113-1.00098-.3457-1.47949-.55176s-.90918-.47461-1.2915-.80566c-.3833-.33203-.68848-.74707-.9165-1.24805-.22852-.5-.34229-1.11816-.34229-1.85449,0-.69238.13574-1.30664.40869-1.84375.27197-.53711.64014-.98633,1.104-1.34766.46387-.36035.99707-.63281,1.60059-.81641.60352-.18457,1.23682-.27637,1.89941-.27637.85352,0,1.64502.15137,2.37354.45312s1.35791.80566,1.88818,1.5127l-1.25879.90527c-.36816-.51562-.79883-.90234-1.29199-1.16016-.49316-.25684-1.07812-.38574-1.75537-.38574-.47119,0-.91992.0625-1.34668.1875-.42725.125-.79883.30957-1.11523.55176-.31689.24316-.5708.54883-.76172.91699-.19189.36816-.28711.80176-.28711,1.30273,0,.78027.19873,1.37988.59619,1.7998.39746.41895.89404.75,1.49023.99316s1.24414.45605,1.94336.64062c.69922.18359,1.34717.43066,1.94336.73926.59619.30957,1.09277.74023,1.49023,1.29199s.59619,1.31348.59619,2.28516c0,.70703-.13232,1.33301-.39746,1.87695-.26514.54492-.62207,1.00488-1.0708,1.38086-.44922.375-.96826.6582-1.55664.84961-.58936.19141-1.2002.28711-1.83301.28711-1.03076,0-1.97998-.18066-2.84863-.54102s-1.61182-.96777-2.22998-1.82129l1.39111-.92773Z"/>
        <path class="uuid-7d752b86-00b6-4da7-a4fc-3967ebae9637" d="m32.65964,376.24841h1.50146l6.58057,15.63379h-1.63428l-1.7002-4.15137h-8.28076l-1.7666,4.15137h-1.52344l6.82324-15.63379Zm.68457,1.58984l-3.64355,8.56738h7.17676l-3.5332-8.56738Z"/>
        <path class="uuid-7d752b86-00b6-4da7-a4fc-3967ebae9637" d="m45.62155,376.24841h1.87695l9.51709,13.69043h.04395v-13.69043h1.45752v15.63379h-1.87695l-9.51709-13.69043h-.04443v13.69043h-1.45703v-15.63379Z"/>
        <path class="uuid-7d752b86-00b6-4da7-a4fc-3967ebae9637" d="m65.87009,388.98962c.38232.66211.87939,1.15527,1.49023,1.47949s1.30664.48535,2.08691.48535c.48584,0,.94189-.07324,1.36914-.2207.42676-.14648.79834-.35352,1.11523-.61816.31641-.26465.56641-.58496.75049-.96094.18408-.375.27588-.79785.27588-1.26953,0-.54395-.11377-.99316-.34229-1.34668-.22803-.35352-.53369-.64355-.91602-.87207-.3833-.22852-.81348-.42285-1.29199-.58496s-.97168-.32422-1.47949-.48633c-.50781-.16113-1.00098-.3457-1.47949-.55176s-.90918-.47461-1.2915-.80566c-.3833-.33203-.68848-.74707-.9165-1.24805-.22852-.5-.34229-1.11816-.34229-1.85449,0-.69238.13574-1.30664.40869-1.84375.27197-.53711.64014-.98633,1.104-1.34766.46387-.36035.99707-.63281,1.60059-.81641.60352-.18457,1.23682-.27637,1.89941-.27637.85352,0,1.64502.15137,2.37354.45312s1.35791.80566,1.88818,1.5127l-1.25879.90527c-.36816-.51562-.79883-.90234-1.29199-1.16016-.49316-.25684-1.07812-.38574-1.75537-.38574-.47119,0-.91992.0625-1.34668.1875-.42725.125-.79883.30957-1.11523.55176-.31689.24316-.5708.54883-.76172.91699-.19189.36816-.28711.80176-.28711,1.30273,0,.78027.19873,1.37988.59619,1.7998.39746.41895.89404.75,1.49023.99316s1.24414.45605,1.94336.64062c.69922.18359,1.34717.43066,1.94336.73926.59619.30957,1.09277.74023,1.49023,1.29199s.59619,1.31348.59619,2.28516c0,.70703-.13232,1.33301-.39746,1.87695-.26514.54492-.62207,1.00488-1.0708,1.38086-.44922.375-.96826.6582-1.55664.84961-.58936.19141-1.2002.28711-1.83301.28711-1.03076,0-1.97998-.18066-2.84863-.54102s-1.61182-.96777-2.22998-1.82129l1.39111-.92773Z"/>
        <path class="uuid-7d752b86-00b6-4da7-a4fc-3967ebae9637" d="m80.3779,376.24841h9.56104v1.3252h-8.104v5.56445h7.59619v1.3252h-7.59619v6.09375h8.45752v1.3252h-9.91455v-15.63379Z"/>
        <path class="uuid-7d752b86-00b6-4da7-a4fc-3967ebae9637" d="m96.12155,376.24841h4.50439c.54443,0,1.11523.0625,1.71143.1875.59619.12598,1.14062.34277,1.63477.65137.49316.30957.89746.73242,1.21387,1.26953.31641.53809.47461,1.21191.47461,2.02051,0,.70703-.12891,1.31836-.38574,1.83301-.25781.51562-.60449.93848-1.03809,1.26953-.43457.33203-.93555.57812-1.50195.74023-.56689.16211-1.15918.24316-1.77783.24316h-3.37842v7.41895h-1.45703v-15.63379Zm1.45703,6.88965h3.3125c.41162,0,.81689-.04785,1.21436-.14355s.75098-.25,1.06006-.46387c.30908-.21289.55957-.49707.75098-.84961.19141-.35352.28711-.78809.28711-1.30371,0-.5-.09961-.92676-.29785-1.28027-.19922-.35352-.45703-.64355-.77344-.87207-.31689-.22852-.68115-.39355-1.09326-.49707-.41211-.10254-.82422-.1543-1.23633-.1543h-3.22412v5.56445Z"/>
        <path class="uuid-7d752b86-00b6-4da7-a4fc-3967ebae9637" d="m110.43015,384.0658c0-1.19238.19922-2.28906.59668-3.29102.39746-1,.94922-1.86523,1.65625-2.59375.70605-.72949,1.55664-1.2998,2.5498-1.71191.99414-.41211,2.08691-.61816,3.2793-.61816s2.28516.20605,3.2793.61816c.99316.41211,1.84375.98242,2.5498,1.71191.70703.72852,1.25879,1.59375,1.65625,2.59375.39746,1.00195.59668,2.09863.59668,3.29102s-.19922,2.29297-.59668,3.30078c-.39746,1.00879-.94922,1.87695-1.65625,2.60547-.70605.72852-1.55664,1.2959-2.5498,1.7002-.99414.40527-2.08691.60742-3.2793.60742s-2.28516-.20215-3.2793-.60742c-.99316-.4043-1.84375-.97168-2.5498-1.7002-.70703-.72852-1.25879-1.59668-1.65625-2.60547-.39746-1.00781-.59668-2.1084-.59668-3.30078Zm1.45801,0c0,.9707.1543,1.87695.46289,2.71582.30957.83887.75098,1.56738,1.3252,2.18555s1.26953,1.10449,2.08691,1.45801c.81641.35254,1.7334.5293,2.74902.5293s1.93164-.17676,2.74902-.5293c.81738-.35352,1.5127-.83984,2.08691-1.45801s1.01562-1.34668,1.3252-2.18555c.30859-.83887.46289-1.74512.46289-2.71582,0-.97168-.1543-1.87695-.46289-2.7168-.30957-.83887-.75098-1.56738-1.3252-2.18555s-1.26953-1.10449-2.08691-1.45801c-.81738-.35254-1.7334-.5293-2.74902-.5293s-1.93262.17676-2.74902.5293c-.81738.35352-1.5127.83984-2.08691,1.45801s-1.01562,1.34668-1.3252,2.18555c-.30859.83984-.46289,1.74512-.46289,2.7168Z"/>
        <path class="uuid-7d752b86-00b6-4da7-a4fc-3967ebae9637" d="m132.48972,376.24841h1.45801v14.30859h7.28613v1.3252h-8.74414v-15.63379Z"/>
        <path class="uuid-7d752b86-00b6-4da7-a4fc-3967ebae9637" d="m159.03171,389.43103c-.75098,1.01562-1.62012,1.74414-2.60547,2.18652-.98633.44141-2.05371.66211-3.20215.66211-1.19238,0-2.28516-.20215-3.2793-.60742-.99316-.4043-1.84375-.97168-2.5498-1.7002-.70703-.72852-1.25879-1.59668-1.65625-2.60547-.39746-1.00781-.59668-2.1084-.59668-3.30078s.19922-2.28906.59668-3.29102c.39746-1,.94922-1.86523,1.65625-2.59375.70605-.72949,1.55664-1.2998,2.5498-1.71191.99414-.41211,2.08691-.61816,3.2793-.61816,1.05957,0,2.0498.1875,2.96973.56348.91992.375,1.72559,1.00391,2.41797,1.8877l-1.19238.99316c-.48535-.73535-1.10742-1.27246-1.86621-1.61133-.75781-.33887-1.53418-.50781-2.3291-.50781-1.01562,0-1.93262.17676-2.74902.5293-.81738.35352-1.5127.83984-2.08691,1.45801s-1.01562,1.34668-1.3252,2.18555c-.30859.83984-.46289,1.74512-.46289,2.7168,0,.9707.1543,1.87695.46289,2.71582.30957.83887.75098,1.56738,1.3252,2.18555s1.26953,1.10449,2.08691,1.45801c.81641.35254,1.7334.5293,2.74902.5293.39746,0,.80957-.04688,1.23633-.14355.42676-.0957.84277-.24219,1.24805-.44141.4043-.19824.79102-.44922,1.15918-.75098.36719-.30078.69141-.66602.97168-1.09277l1.19238.90527Z"/>
        <path class="uuid-7d752b86-00b6-4da7-a4fc-3967ebae9637" d="m164.353,376.24841h4.10742c.20605,0,.48535.00781.83887.02246s.73633.05859,1.14844.13184c.41211.07422.83203.19141,1.25879.35352s.80957.39746,1.14844.70703c.33789.30859.61816.69922.83887,1.16992.2207.47168.33105,1.0459.33105,1.72266,0,.75098-.12891,1.36914-.38672,1.85449-.25684.48633-.58105.87988-.9707,1.18164-.39062.30176-.82129.52637-1.29199.67383-.47168.14648-.9209.25-1.34766.30859l4.54883,7.50781h-1.65527l-4.39453-7.41895h-2.71582v7.41895h-1.45801v-15.63379Zm1.45801,6.88965h3.09082c.76562,0,1.3877-.0957,1.86621-.28711s.84961-.42676,1.11523-.70703c.26465-.2793.44531-.58105.54102-.90527.0957-.32324.14355-.61816.14355-.88281,0-.26562-.04785-.55957-.14355-.88379-.0957-.32324-.27637-.625-.54102-.90527-.26562-.2793-.63672-.51465-1.11523-.70605s-1.10059-.28711-1.86621-.28711h-3.09082v5.56445Z"/>
        <path class="uuid-7d752b86-00b6-4da7-a4fc-3967ebae9637" d="m179.08151,384.0658c0-1.19238.19922-2.28906.59668-3.29102.39746-1,.94922-1.86523,1.65625-2.59375.70605-.72949,1.55664-1.2998,2.5498-1.71191.99414-.41211,2.08691-.61816,3.2793-.61816s2.28516.20605,3.2793.61816c.99316.41211,1.84375.98242,2.5498,1.71191.70703.72852,1.25879,1.59375,1.65625,2.59375.39746,1.00195.59668,2.09863.59668,3.29102s-.19922,2.29297-.59668,3.30078c-.39746,1.00879-.94922,1.87695-1.65625,2.60547-.70605.72852-1.55664,1.2959-2.5498,1.7002-.99414.40527-2.08691.60742-3.2793.60742s-2.28516-.20215-3.2793-.60742c-.99316-.4043-1.84375-.97168-2.5498-1.7002-.70703-.72852-1.25879-1.59668-1.65625-2.60547-.39746-1.00781-.59668-2.1084-.59668-3.30078Zm1.45801,0c0,.9707.1543,1.87695.46289,2.71582.30957.83887.75098,1.56738,1.3252,2.18555s1.26953,1.10449,2.08691,1.45801c.81641.35254,1.7334.5293,2.74902.5293s1.93164-.17676,2.74902-.5293c.81738-.35352,1.5127-.83984,2.08691-1.45801s1.01562-1.34668,1.3252-2.18555c.30859-.83887.46289-1.74512.46289-2.71582,0-.97168-.1543-1.87695-.46289-2.7168-.30957-.83887-.75098-1.56738-1.3252-2.18555s-1.26953-1.10449-2.08691-1.45801c-.81738-.35254-1.7334-.5293-2.74902-.5293s-1.93262.17676-2.74902.5293c-.81738.35352-1.5127.83984-2.08691,1.45801s-1.01562,1.34668-1.3252,2.18555c-.30859.83984-.46289,1.74512-.46289,2.7168Z"/>
      </g>
    </g>
  </g>
</svg>